<?xml version="1.0" encoding="UTF-8" standalone="no"?>
<!-- Created with Inkscape (http://www.inkscape.org/) -->

<svg
   width="342.6626mm"
   height="296.28931mm"
   viewBox="0 0 342.6626 296.28931"
   version="1.1"
   id="svg1"
   xmlns="http://www.w3.org/2000/svg"
   xmlns:svg="http://www.w3.org/2000/svg">
  <defs
     id="defs1">
    <clipPath
       clipPathUnits="userSpaceOnUse"
       id="clipPath2">
      <path
         d="M 0,1000 H 2817.31 V 0 H 0 Z"
         transform="translate(-883.5652,-452.02341)"
         id="path2" />
    </clipPath>
    <clipPath
       clipPathUnits="userSpaceOnUse"
       id="clipPath4">
      <path
         d="M 0,1000 H 2817.31 V 0 H 0 Z"
         transform="translate(-995.85925,-685.28372)"
         id="path4" />
    </clipPath>
    <clipPath
       clipPathUnits="userSpaceOnUse"
       id="clipPath6">
      <path
         d="M 0,1000 H 2817.31 V 0 H 0 Z"
         transform="translate(-1596.8158,-751.14502)"
         id="path6" />
    </clipPath>
    <clipPath
       clipPathUnits="userSpaceOnUse"
       id="clipPath8">
      <path
         d="M 0,1000 H 2817.31 V 0 H 0 Z"
         transform="translate(-1635.0541,-561.66111)"
         id="path8" />
    </clipPath>
    <clipPath
       clipPathUnits="userSpaceOnUse"
       id="clipPath10">
      <path
         d="M 0,1000 H 2817.31 V 0 H 0 Z"
         transform="translate(-905.8738,-322.80081)"
         id="path10" />
    </clipPath>
    <clipPath
       clipPathUnits="userSpaceOnUse"
       id="clipPath14">
      <path
         d="M 0,1000 H 2817.31 V 0 H 0 Z"
         transform="translate(-1022.3509,-738.79592)"
         id="path14" />
    </clipPath>
    <clipPath
       clipPathUnits="userSpaceOnUse"
       id="clipPath16">
      <path
         d="M 0,1000 H 2817.31 V 0 H 0 Z"
         transform="translate(-1042.5048,-701.66552)"
         id="path16" />
    </clipPath>
    <clipPath
       clipPathUnits="userSpaceOnUse"
       id="clipPath18">
      <path
         d="M 0,1000 H 2817.31 V 0 H 0 Z"
         transform="translate(-946.08092,-660.10401)"
         id="path18" />
    </clipPath>
    <clipPath
       clipPathUnits="userSpaceOnUse"
       id="clipPath20">
      <path
         d="M 0,1000 H 2817.31 V 0 H 0 Z"
         transform="translate(-1290.0507,-851.47362)"
         id="path20" />
    </clipPath>
    <clipPath
       clipPathUnits="userSpaceOnUse"
       id="clipPath22">
      <path
         d="M 0,1000 H 2817.31 V 0 H 0 Z"
         transform="translate(-1735.3755,-421.00881)"
         id="path22" />
    </clipPath>
    <clipPath
       clipPathUnits="userSpaceOnUse"
       id="clipPath24">
      <path
         d="M 0,1000 H 2817.31 V 0 H 0 Z"
         transform="translate(-1786.4125,-497.29201)"
         id="path24" />
    </clipPath>
    <clipPath
       clipPathUnits="userSpaceOnUse"
       id="clipPath26">
      <path
         d="M 0,1000 H 2817.31 V 0 H 0 Z"
         transform="translate(-1620.1401,-518.12702)"
         id="path26" />
    </clipPath>
    <clipPath
       clipPathUnits="userSpaceOnUse"
       id="clipPath28">
      <path
         d="M 0,1000 H 2817.31 V 0 H 0 Z"
         transform="translate(-1672.2328,-740.75982)"
         id="path28" />
    </clipPath>
    <clipPath
       clipPathUnits="userSpaceOnUse"
       id="clipPath30">
      <path
         d="M 0,1000 H 2817.31 V 0 H 0 Z"
         transform="translate(-1736.1019,-590.69681)"
         id="path30" />
    </clipPath>
    <clipPath
       clipPathUnits="userSpaceOnUse"
       id="clipPath32">
      <path
         d="M 0,1000 H 2817.31 V 0 H 0 Z"
         transform="translate(-1565.1303,-700.33112)"
         id="path32" />
    </clipPath>
    <clipPath
       clipPathUnits="userSpaceOnUse"
       id="clipPath34">
      <path
         d="M 0,1000 H 2817.31 V 0 H 0 Z"
         transform="translate(-1008.3534,-431.01861)"
         id="path34" />
    </clipPath>
    <clipPath
       clipPathUnits="userSpaceOnUse"
       id="clipPath36">
      <path
         d="M 0,1000 H 2817.31 V 0 H 0 Z"
         transform="translate(-1048.9638,-688.43312)"
         id="path36" />
    </clipPath>
    <clipPath
       clipPathUnits="userSpaceOnUse"
       id="clipPath38">
      <path
         d="M 0,1000 H 2817.31 V 0 H 0 Z"
         transform="translate(-1009.0413,-403.13571)"
         id="path38" />
    </clipPath>
    <clipPath
       clipPathUnits="userSpaceOnUse"
       id="clipPath40">
      <path
         d="M 0,1000 H 2817.31 V 0 H 0 Z"
         transform="translate(-1515.85,-812.06542)"
         id="path40" />
    </clipPath>
    <clipPath
       clipPathUnits="userSpaceOnUse"
       id="clipPath42">
      <path
         d="M 0,1000 H 2817.31 V 0 H 0 Z"
         transform="translate(-1201.7412,-901.66312)"
         id="path42" />
    </clipPath>
    <clipPath
       clipPathUnits="userSpaceOnUse"
       id="clipPath44">
      <path
         d="M 0,1000 H 2817.31 V 0 H 0 Z"
         transform="translate(-1118.2827,-864.82282)"
         id="path44" />
    </clipPath>
    <clipPath
       clipPathUnits="userSpaceOnUse"
       id="clipPath46">
      <path
         d="M 0,1000 H 2817.31 V 0 H 0 Z"
         transform="translate(-1402.7587,-718.53422)"
         id="path46" />
    </clipPath>
    <clipPath
       clipPathUnits="userSpaceOnUse"
       id="clipPath48">
      <path
         d="M 0,1000 H 2817.31 V 0 H 0 Z"
         transform="translate(-1157.1738,-700.63432)"
         id="path48" />
    </clipPath>
    <clipPath
       clipPathUnits="userSpaceOnUse"
       id="clipPath50">
      <path
         d="M 0,1000 H 2817.31 V 0 H 0 Z"
         transform="translate(-1222.9486,-723.78712)"
         id="path50" />
    </clipPath>
    <clipPath
       clipPathUnits="userSpaceOnUse"
       id="clipPath52">
      <path
         d="M 0,1000 H 2817.31 V 0 H 0 Z"
         transform="translate(-989.76355,-611.99462)"
         id="path52" />
    </clipPath>
    <clipPath
       clipPathUnits="userSpaceOnUse"
       id="clipPath54">
      <path
         d="M 0,1000 H 2817.31 V 0 H 0 Z"
         transform="translate(-1528.3998,-618.05372)"
         id="path54" />
    </clipPath>
    <clipPath
       clipPathUnits="userSpaceOnUse"
       id="clipPath56">
      <path
         d="M 0,1000 H 2817.31 V 0 H 0 Z"
         transform="translate(-1685.976,-879.95652)"
         id="path56" />
    </clipPath>
    <clipPath
       clipPathUnits="userSpaceOnUse"
       id="clipPath58">
      <path
         d="M 0,1000 H 2817.31 V 0 H 0 Z"
         transform="translate(-1049.0634,-309.32711)"
         id="path58" />
    </clipPath>
    <clipPath
       clipPathUnits="userSpaceOnUse"
       id="clipPath60">
      <path
         d="M 0,1000 H 2817.31 V 0 H 0 Z"
         transform="translate(-1064.3065,-578.20701)"
         id="path60" />
    </clipPath>
    <clipPath
       clipPathUnits="userSpaceOnUse"
       id="clipPath62">
      <path
         d="M 0,1000 H 2817.31 V 0 H 0 Z"
         transform="translate(-1481.4388,-795.79742)"
         id="path62" />
    </clipPath>
    <clipPath
       clipPathUnits="userSpaceOnUse"
       id="clipPath64">
      <path
         d="M 0,1000 H 2817.31 V 0 H 0 Z"
         transform="translate(-1660.1244,-337.89651)"
         id="path64" />
    </clipPath>
    <clipPath
       clipPathUnits="userSpaceOnUse"
       id="clipPath66">
      <path
         d="M 0,1000 H 2817.31 V 0 H 0 Z"
         transform="translate(-1514.4525,-321.07231)"
         id="path66" />
    </clipPath>
    <clipPath
       clipPathUnits="userSpaceOnUse"
       id="clipPath68">
      <path
         d="M 0,1000 H 2817.31 V 0 H 0 Z"
         transform="translate(-1537.431,-424.96001)"
         id="path68" />
    </clipPath>
    <clipPath
       clipPathUnits="userSpaceOnUse"
       id="clipPath70">
      <path
         d="M 0,1000 H 2817.31 V 0 H 0 Z"
         transform="translate(-936.868,-586.72751)"
         id="path70" />
    </clipPath>
    <clipPath
       clipPathUnits="userSpaceOnUse"
       id="clipPath72">
      <path
         d="M 0,1000 H 2817.31 V 0 H 0 Z"
         transform="translate(-936.16975,-484.56251)"
         id="path72" />
    </clipPath>
    <clipPath
       clipPathUnits="userSpaceOnUse"
       id="clipPath74">
      <path
         d="M 0,1000 H 2817.31 V 0 H 0 Z"
         transform="translate(-937.6693,-599.57372)"
         id="path74" />
    </clipPath>
    <clipPath
       clipPathUnits="userSpaceOnUse"
       id="clipPath76">
      <path
         d="M 0,1000 H 2817.31 V 0 H 0 Z"
         transform="translate(-1505.9535,-703.23292)"
         id="path76" />
    </clipPath>
    <clipPath
       clipPathUnits="userSpaceOnUse"
       id="clipPath78">
      <path
         d="M 0,1000 H 2817.31 V 0 H 0 Z"
         transform="translate(-1313.3143,-592.05422)"
         id="path78" />
    </clipPath>
    <clipPath
       clipPathUnits="userSpaceOnUse"
       id="clipPath80">
      <path
         d="M 0,1000 H 2817.31 V 0 H 0 Z"
         transform="translate(-1240.3437,-459.43851)"
         id="path80" />
    </clipPath>
    <clipPath
       clipPathUnits="userSpaceOnUse"
       id="clipPath82">
      <path
         d="M 0,1000 H 2817.31 V 0 H 0 Z"
         transform="translate(-1386.7855,-464.46191)"
         id="path82" />
    </clipPath>
    <clipPath
       clipPathUnits="userSpaceOnUse"
       id="clipPath84">
      <path
         d="M 0,1000 H 2817.31 V 0 H 0 Z"
         transform="translate(-1481.6919,-512.82081)"
         id="path84" />
    </clipPath>
    <clipPath
       clipPathUnits="userSpaceOnUse"
       id="clipPath86">
      <path
         d="M 0,1000 H 2817.31 V 0 H 0 Z"
         transform="translate(-1293.4813,-281.7725)"
         id="path86" />
    </clipPath>
    <clipPath
       clipPathUnits="userSpaceOnUse"
       id="clipPath90">
      <path
         d="M 0,1000 H 2817.31 V 0 H 0 Z"
         transform="translate(-1778.2465,-650.65532)"
         id="path90" />
    </clipPath>
    <clipPath
       clipPathUnits="userSpaceOnUse"
       id="clipPath92">
      <path
         d="M 0,1000 H 2817.31 V 0 H 0 Z"
         transform="translate(-1191.8173,-261.5225)"
         id="path92" />
    </clipPath>
    <clipPath
       clipPathUnits="userSpaceOnUse"
       id="clipPath94">
      <path
         d="M 0,1000 H 2817.31 V 0 H 0 Z"
         transform="translate(-1419.6649,-647.03562)"
         id="path94" />
    </clipPath>
    <clipPath
       clipPathUnits="userSpaceOnUse"
       id="clipPath96">
      <path
         d="M 0,1000 H 2817.31 V 0 H 0 Z"
         transform="translate(-1420.0057,-610.28562)"
         id="path96" />
    </clipPath>
    <clipPath
       clipPathUnits="userSpaceOnUse"
       id="clipPath98">
      <path
         d="M 0,1000 H 2817.31 V 0 H 0 Z"
         transform="translate(-1413.7885,-641.24901)"
         id="path98" />
    </clipPath>
    <clipPath
       clipPathUnits="userSpaceOnUse"
       id="clipPath100">
      <path
         d="M 0,1000 H 2817.31 V 0 H 0 Z"
         transform="translate(-1392.3817,-667.89261)"
         id="path100" />
    </clipPath>
    <clipPath
       clipPathUnits="userSpaceOnUse"
       id="clipPath102">
      <path
         d="M 0,1000 H 2817.31 V 0 H 0 Z"
         transform="translate(-1422.3999,-641.73972)"
         id="path102" />
    </clipPath>
  </defs>
  <g
     id="layer1"
     transform="translate(126.65464,-16.66875)">
    <path
       id="path1"
       d="M 0,0 C 36.488,10.691 77.798,-3.03 100.466,-42.78 60.745,-59.226 22.504,-43.159 0,0"
       style="fill:#5b7f16;fill-opacity:1;fill-rule:nonzero;stroke:none"
       transform="matrix(0.35277776,0,0,-0.35277776,-113.24104,175.29164)"
       clip-path="url(#clipPath2)" />
    <path
       id="path3"
       d="m 0,0 c -8.509,3.971 -16.923,7.879 -25.321,11.821 -11.045,5.184 -15.873,13.986 -14.911,26.023 0.365,4.564 1.067,9.099 1.5,13.658 0.519,5.466 0.914,10.943 1.388,16.727 1.071,-0.312 2.139,-0.48 3.08,-0.92 4.433,-2.073 8.844,-4.196 13.241,-6.346 C -8.233,54.71 -0.431,44.665 0.515,30.352 1.157,20.616 0.538,10.796 0.449,1.014 0.446,0.615 0.102,0.219 0,0"
       style="fill:#5b7f16;fill-opacity:1;fill-rule:nonzero;stroke:none"
       transform="matrix(0.35277776,0,0,-0.35277776,-73.6262,93.002591)"
       clip-path="url(#clipPath4)" />
    <path
       id="path5"
       d="m 0,0 c -0.467,-14.925 -0.935,-29.849 -1.401,-44.773 -0.559,-0.212 -1.119,-0.423 -1.678,-0.634 -1.353,1.274 -3.081,2.323 -3.995,3.858 -5.227,8.782 -10.634,17.49 -15.253,26.591 -4.64,9.143 -3.535,18.751 0.048,28.037 1.541,3.993 3.59,7.819 5.69,11.563 5.7,10.161 11.85,20.119 12.122,32.576 29.891,-19.18 33.971,-93.329 9.599,-113.873 0.591,9.918 1.304,19.376 1.676,28.846 0.379,9.681 -0.649,19.15 -5.419,27.803 z"
       style="fill:#5b7f16;fill-opacity:1;fill-rule:nonzero;stroke:none"
       transform="matrix(0.35277776,0,0,-0.35277776,138.37791,69.76819)"
       clip-path="url(#clipPath6)" />
    <path
       id="path7"
       d="m 0,0 c -13.731,-28.53 -81.927,-41.32 -104.713,-20.43 9.657,0.457 18.762,0.531 27.786,1.417 8.959,0.88 17.656,3.126 25.338,8.546 -14.428,0.659 -28.7,-3.003 -43.085,-2.219 -0.196,0.478 -0.393,0.957 -0.59,1.435 2.384,2.377 4.573,5.002 7.196,7.077 4.802,3.797 9.856,7.277 14.815,10.874 10.053,7.292 21.012,8.682 32.733,4.973 1.826,-0.578 3.648,-1.19 5.42,-1.912 C -23.83,5.172 -12.953,-0.723 0,0"
       style="fill:#5b7f16;fill-opacity:1;fill-rule:nonzero;stroke:none"
       transform="matrix(0.35277776,0,0,-0.35277776,151.86754,136.6139)"
       clip-path="url(#clipPath8)" />
    <path
       id="path9"
       d="M 0,0 C 4.594,37.284 39.584,66.95 77.852,67.155 63.003,57.312 46.839,50.4 39.23,33.409 50.515,41.097 61.799,48.784 73.083,56.472 73.5,56.154 73.917,55.836 74.334,55.519 74.225,53.995 74.51,52.304 73.943,50.977 70.709,43.406 67.674,35.71 63.813,28.46 57.623,16.836 47.714,10.234 34.487,8.86 29.933,8.387 25.383,7.881 20.831,7.389 13.686,6.614 6.708,5.302 0,0"
       style="fill:#5b7f16;fill-opacity:1;fill-rule:nonzero;stroke:none"
       transform="matrix(0.35277776,0,0,-0.35277776,-105.37107,220.8785)"
       clip-path="url(#clipPath10)" />
    <path
       id="path13"
       d="M 0,0 C 1.78,11.725 7.363,22.293 11.161,34.448 4.12,29.184 0.567,22.736 -1.838,15.659 -4.155,8.84 -5.988,1.856 -8.08,-5.208 -20.709,17.396 0.759,63.583 28.616,73.34 26.514,63.52 28.286,54.079 30.033,44.655 32.624,30.677 28.346,19.345 17.027,10.789 11.751,6.8 6.254,3.103 0.857,-0.727 Z"
       style="fill:#5b7f16;fill-opacity:1;fill-rule:nonzero;stroke:none"
       transform="matrix(0.35277776,0,0,-0.35277776,-64.280535,74.124676)"
       clip-path="url(#clipPath14)" />
    <path
       id="path15"
       d="m 0,0 c 3.195,13.552 6.872,26.339 19.687,33.987 4.337,2.589 9.053,3.563 14.04,3.802 7.389,0.354 14.769,0.897 22.325,1.37 C 57.238,36.411 55.98,34.187 55.029,31.888 52.863,26.653 50.399,21.504 48.707,16.117 45.646,6.375 39.226,0.718 29.187,0.12 19.777,-0.44 10.309,0 0,0"
       style="fill:#5b7f16;fill-opacity:1;fill-rule:nonzero;stroke:none"
       transform="matrix(0.35277776,0,0,-0.35277776,-57.170678,87.223456)"
       clip-path="url(#clipPath16)" />
    <path
       id="path17"
       d="m 0,0 c 8.041,-7.288 18.9,-10.548 26.25,-18.982 -9.965,-0.374 -19.801,-2.601 -29.52,0.63 -7.35,2.442 -11.911,8.066 -16.041,14.183 -4.832,7.156 -9.71,14.283 -14.502,21.324 22.001,9.75 65.265,-11.236 69.025,-35.011 C 24.441,-9.077 14.059,-0.811 0,0"
       style="fill:#5b7f16;fill-opacity:1;fill-rule:nonzero;stroke:none"
       transform="matrix(0.35277776,0,0,-0.35277776,-91.186887,101.88543)"
       clip-path="url(#clipPath18)" />
    <path
       id="path19"
       d="M 0,0 C 12.239,-7.218 24.121,-13.504 35.227,-20.946 51.824,-32.067 56.796,-47.974 51.238,-67.163 48.311,-77.271 45.975,-87.55 43.197,-98.435 34.899,-95.301 26.464,-90.012 18.389,-84.081 1.083,-71.371 -7.213,-54.635 -4.328,-32.938 -2.906,-22.244 -1.516,-11.545 0,0"
       style="fill:#5b7f16;fill-opacity:1;fill-rule:nonzero;stroke:none"
       transform="matrix(0.35277776,0,0,-0.35277776,30.158013,34.374489)"
       clip-path="url(#clipPath20)" />
    <path
       id="path21"
       d="m 0,0 c -7.729,-5.053 -15.14,-9.971 -22.632,-14.76 -3.325,-2.126 -6.672,-4.312 -10.258,-5.913 -9.126,-4.074 -18.192,-4.275 -26.737,1.667 -4.61,3.206 -9.151,6.519 -13.632,9.904 -5.964,4.507 -11.838,9.132 -17.753,13.709 0.017,0.404 -0.129,1.005 0.078,1.173 10.594,8.629 21.92,15.97 35.633,18.462 9.994,1.817 19.631,0.206 28.178,-5.385 C -17.915,12.836 -9.035,6.312 0,0"
       style="fill:#5b7f16;fill-opacity:1;fill-rule:nonzero;stroke:none"
       transform="matrix(0.35277776,0,0,-0.35277776,187.25868,186.2329)"
       clip-path="url(#clipPath22)" />
    <path
       id="path23"
       d="m 0,0 c -9.636,-6.298 -18.875,-12.43 -28.216,-18.4 -4.145,-2.651 -8.317,-5.376 -12.788,-7.372 -11.378,-5.08 -22.681,-5.331 -33.334,2.078 -5.748,3.998 -11.409,8.127 -16.995,12.348 -7.436,5.618 -14.759,11.384 -22.133,17.091 0.021,0.503 -0.161,1.253 0.098,1.463 13.207,10.757 27.327,19.909 44.424,23.016 12.46,2.264 24.473,0.256 35.13,-6.713 C -22.335,16.004 -11.265,7.871 0,0"
       style="fill:#5b7f16;fill-opacity:1;fill-rule:nonzero;stroke:none"
       transform="matrix(0.35277776,0,0,-0.35277776,205.26342,159.32188)"
       clip-path="url(#clipPath24)" />
    <path
       id="path25"
       d="m 0,0 c 5.565,-10.821 11.298,-20.804 15.94,-31.27 6.938,-15.639 3.27,-29.433 -9.525,-40.791 -6.74,-5.982 -13.13,-12.359 -20.117,-18.973 -4.577,6.061 -8.269,13.748 -11.407,21.734 -6.725,17.114 -5.084,33.027 6.921,47.422 C -12.271,-14.782 -6.374,-7.669 0,0"
       style="fill:#5b7f16;fill-opacity:1;fill-rule:nonzero;stroke:none"
       transform="matrix(0.35277776,0,0,-0.35277776,146.60619,151.97176)"
       clip-path="url(#clipPath26)" />
    <path
       id="path27"
       d="m 0,0 c 23.073,-22.157 13.905,-91.655 -13.318,-106.962 2.598,9.416 5.391,18.18 7.379,27.123 1.972,8.879 2.551,17.935 -0.237,27.016 -5.171,-13.645 -6.143,-28.5 -11.42,-42.065 -0.521,-0.038 -1.042,-0.076 -1.563,-0.115 -1.532,3.037 -3.365,5.963 -4.531,9.135 -2.136,5.805 -3.887,11.751 -5.782,17.644 -3.84,11.945 -1.726,22.904 5.521,32.991 1.129,1.571 2.29,3.128 3.54,4.603 C -12.46,-21.253 -3.38,-12.664 0,0"
       style="fill:#5b7f16;fill-opacity:1;fill-rule:nonzero;stroke:none"
       transform="matrix(0.35277776,0,0,-0.35277776,164.98335,73.431857)"
       clip-path="url(#clipPath28)" />
    <path
       id="path29"
       d="m 0,0 c -8.682,-5.675 -17.006,-11.199 -25.423,-16.58 -3.734,-2.387 -7.494,-4.843 -11.521,-6.641 -10.252,-4.577 -20.436,-4.803 -30.035,1.872 -5.178,3.602 -10.279,7.323 -15.312,11.126 -6.699,5.062 -13.298,10.257 -19.942,15.399 0.018,0.453 -0.145,1.129 0.088,1.318 11.9,9.693 24.623,17.939 40.026,20.737 11.226,2.04 22.051,0.232 31.652,-6.048 C -20.124,14.419 -10.149,7.092 0,0"
       style="fill:#5b7f16;fill-opacity:1;fill-rule:nonzero;stroke:none"
       transform="matrix(0.35277776,0,0,-0.35277776,187.51495,126.37075)"
       clip-path="url(#clipPath30)" />
    <path
       id="path31"
       d="m 0,0 c 5.854,-11.385 11.886,-21.887 16.771,-32.899 7.298,-16.454 3.439,-30.966 -10.023,-42.915 -7.091,-6.294 -13.813,-13.003 -21.164,-19.962 -4.816,6.378 -8.7,14.464 -12.002,22.866 -7.075,18.007 -5.349,34.747 7.282,49.893 C -12.91,-15.552 -6.707,-8.068 0,0"
       style="fill:#5b7f16;fill-opacity:1;fill-rule:nonzero;stroke:none"
       transform="matrix(0.35277776,0,0,-0.35277776,127.19996,87.694202)"
       clip-path="url(#clipPath32)" />
    <path
       id="path33"
       d="m 0,0 c -9.283,2.421 -17.475,4.549 -25.168,8.26 -6.496,3.134 -11.554,7.86 -14.058,14.705 -1.435,3.921 -2.233,8.108 -3.003,12.234 -1.599,8.58 -2.043,17.461 -7.505,25.086 C -23.132,60.83 7.648,36.302 10.585,-2.562 1.466,10.274 -5.362,23.715 -20.002,29.687 -14.506,19.528 -4.523,12.323 0,0"
       style="fill:#87b046;fill-opacity:1;fill-rule:nonzero;stroke:none"
       transform="matrix(0.35277776,0,0,-0.35277776,-69.218559,182.70167)"
       clip-path="url(#clipPath34)" />
    <path
       id="path35"
       d="m 0,0 c 10.671,-18.128 3.566,-35.805 -17.236,-46.671 -1.684,5.733 -3.532,11.424 -5.003,17.211 -2.063,8.115 0.254,14.174 7.101,19.045 2.573,1.83 5.413,3.281 8.022,5.064 C -4.673,-3.68 -2.374,-1.797 0,0"
       style="fill:#5b7f16;fill-opacity:1;fill-rule:nonzero;stroke:none"
       transform="matrix(0.35277776,0,0,-0.35277776,-54.892113,91.891552)"
       clip-path="url(#clipPath36)" />
    <path
       id="path37"
       d="m 0,0 c 4.048,-5.811 7.278,-10.402 10.463,-15.025 7.653,-11.106 6.941,-20.067 -2.16,-30.121 -3.654,-4.035 -7.041,-8.311 -10.576,-12.509 -10.384,6.373 -16.1,23.223 -10.785,35.053 C -9.59,-14.882 -4.603,-7.846 0,0"
       style="fill:#5b7f16;fill-opacity:1;fill-rule:nonzero;stroke:none"
       transform="matrix(0.35277776,0,0,-0.35277776,-68.975857,192.53814)"
       clip-path="url(#clipPath38)" />
    <path
       id="path39"
       d="m 0,0 c 6.42,-13.48 12.84,-26.959 19.26,-40.439 l -1.201,-1.332 c -1.787,0.513 -3.804,0.654 -5.319,1.6 -8.668,5.412 -17.462,10.676 -25.735,16.651 -8.312,6.001 -11.731,15.048 -12.798,24.943 -0.459,4.255 -0.39,8.594 -0.237,12.883 0.414,11.643 1.319,23.311 -4.144,34.508 35.354,-3.36 72.938,-67.4 60.682,-96.823 -4.018,9.087 -7.715,17.82 -11.722,26.408 C 14.69,-12.822 9.44,-4.875 1.237,0.631 0.825,0.42 0.412,0.21 0,0"
       style="fill:#6398a0;fill-opacity:1;fill-rule:nonzero;stroke:none"
       transform="matrix(0.35277776,0,0,-0.35277776,109.81498,48.276827)"
       clip-path="url(#clipPath40)" />
    <path
       id="path41"
       d="m 0,0 c 41.685,-10.29 77.627,-97.243 56.239,-133.295 -3.293,12.69 -5.922,24.753 -9.608,36.484 -3.66,11.646 -9.06,22.564 -18.391,31.252 3.138,-19.332 11.968,-37.256 14.929,-56.565 -0.58,-0.395 -1.16,-0.789 -1.74,-1.183 -3.818,2.504 -7.911,4.677 -11.394,7.582 -6.375,5.318 -12.399,11.058 -18.554,16.639 -12.473,11.314 -17.366,25.472 -15.703,42.06 0.259,2.585 0.564,5.172 1.03,7.726 C -0.236,-33.067 4.562,-16.991 0,0"
       style="fill:#6398a0;fill-opacity:1;fill-rule:nonzero;stroke:none"
       transform="matrix(0.35277776,0,0,-0.35277776,-0.9956418,16.66875)"
       clip-path="url(#clipPath42)" />
    <path
       id="path43"
       d="m 0,0 c 43.002,-10.615 80.08,-100.315 58.016,-137.506 -3.397,13.091 -6.109,25.535 -9.912,37.636 -3.775,12.015 -9.346,23.277 -18.971,32.24 3.237,-19.943 12.346,-38.433 15.4,-58.352 l -1.796,-1.221 c -3.938,2.583 -8.16,4.826 -11.753,7.822 -6.577,5.486 -12.791,11.407 -19.14,17.165 -12.867,11.671 -17.914,26.277 -16.199,43.389 0.267,2.665 0.582,5.335 1.062,7.97 3.05,16.746 8,33.33 3.293,50.857"
       style="fill:#6398a0;fill-opacity:1;fill-rule:nonzero;stroke:none"
       transform="matrix(0.35277776,0,0,-0.35277776,-30.437946,29.665189)"
       clip-path="url(#clipPath44)" />
    <path
       id="path45"
       d="m 0,0 c 3.976,-35.089 -52.815,-87.655 -86.731,-81.462 8.846,6.166 17.398,11.64 25.392,17.836 7.936,6.15 14.813,13.434 18.847,23.113 -14.012,-7.945 -25.313,-19.876 -39.358,-27.677 -0.47,0.335 -0.94,0.669 -1.41,1.004 0.84,3.66 1.347,7.438 2.592,10.954 2.279,6.437 4.985,12.722 7.531,19.064 5.16,12.852 14.682,20.671 27.95,24.129 2.067,0.539 4.151,1.043 6.253,1.414 C -25.569,-9.267 -11.8,-8.374 0,0"
       style="fill:#6398a0;fill-opacity:1;fill-rule:nonzero;stroke:none"
       transform="matrix(0.35277776,0,0,-0.35277776,69.918882,81.272553)"
       clip-path="url(#clipPath46)" />
    <path
       id="path47"
       d="m 0,0 c 25.562,-27.339 10.476,-107.956 -22.292,-124.125 3.627,10.837 7.442,20.9 10.327,31.224 2.864,10.248 4.111,20.792 1.424,31.576 -6.899,-15.615 -8.971,-32.909 -15.989,-48.424 -0.611,-0.012 -1.222,-0.024 -1.834,-0.036 -1.599,3.644 -3.556,7.178 -4.719,10.957 -2.129,6.916 -3.801,13.974 -5.643,20.977 -3.733,14.197 -0.576,26.868 8.526,38.196 1.418,1.765 2.872,3.51 4.426,5.155 C -15.895,-24.046 -4.746,-14.583 0,0"
       style="fill:#6398a0;fill-opacity:1;fill-rule:nonzero;stroke:none"
       transform="matrix(0.35277776,0,0,-0.35277776,-16.71803,87.587242)"
       clip-path="url(#clipPath48)" />
    <path
       id="path49"
       d="m 0,0 c 21.074,5.701 61.393,-23.723 62.304,-44.825 -5.034,4.773 -9.601,9.433 -14.534,13.688 -4.897,4.224 -10.346,7.701 -16.874,9.233 6.85,-7.732 15.78,-13.449 22.547,-21.215 -0.141,-0.316 -0.282,-0.631 -0.423,-0.947 -2.373,0.165 -4.772,0.116 -7.113,0.54 -4.285,0.774 -8.537,1.821 -12.801,2.766 -8.641,1.915 -14.788,6.942 -18.77,14.645 -0.62,1.2 -1.221,2.413 -1.742,3.65 C 9.277,-14.6 6.807,-6.353 0,0"
       style="fill:#6398a0;fill-opacity:1;fill-rule:nonzero;stroke:none"
       transform="matrix(0.35277776,0,0,-0.35277776,6.4858752,79.419449)"
       clip-path="url(#clipPath50)" />
    <path
       id="path51"
       d="m 0,0 c 31.639,-1.242 70.514,-58.713 60.419,-87.931 -4.263,8.678 -7.954,17.001 -12.359,24.927 -4.373,7.868 -9.894,14.953 -17.925,19.843 5.138,-13.498 14.178,-25.134 19.184,-38.642 -0.36,-0.371 -0.721,-0.741 -1.082,-1.113 -3.129,1.242 -6.408,2.204 -9.356,3.785 -5.395,2.894 -10.598,6.146 -15.872,9.264 -10.691,6.319 -16.327,15.82 -17.59,28.049 -0.197,1.904 -0.36,3.819 -0.403,5.733 C 4.74,-23.92 5.819,-11.595 0,0"
       style="fill:#6398a0;fill-opacity:1;fill-rule:nonzero;stroke:none"
       transform="matrix(0.35277776,0,0,-0.35277776,-75.776628,118.85736)"
       clip-path="url(#clipPath52)" />
    <path
       id="path53"
       d="m 0,0 c 1.089,-31.644 -53.367,-74.641 -83.248,-66.723 8.34,4.89 16.369,9.183 23.95,14.159 7.526,4.94 14.185,10.968 18.471,19.336 -13.084,-6.117 -24.024,-15.988 -37.126,-21.974 -0.397,0.332 -0.793,0.664 -1.19,0.997 1.008,3.212 1.726,6.554 3.086,9.609 2.491,5.593 5.35,11.022 8.072,16.511 5.515,11.126 14.576,17.446 26.678,19.605 1.886,0.336 3.784,0.64 5.689,0.824 12.112,1.169 24.482,1 35.618,7.656"
       style="fill:#6398a0;fill-opacity:1;fill-rule:nonzero;stroke:none"
       transform="matrix(0.35277776,0,0,-0.35277776,114.24228,116.71984)"
       clip-path="url(#clipPath54)" />
    <path
       id="path55"
       d="m 0,0 c 19.172,-25.199 -0.431,-91.756 -29.395,-102.559 3.983,8.81 8.055,16.954 11.368,25.395 3.288,8.38 5.24,17.147 3.903,26.454 -7.145,-12.552 -10.369,-26.93 -17.605,-39.387 -0.516,0.043 -1.032,0.085 -1.547,0.127 -1.034,3.204 -2.377,6.346 -3.034,9.626 -1.199,6.004 -2.002,12.087 -2.952,18.139 -1.926,12.268 1.817,22.662 10.449,31.417 1.343,1.364 2.717,2.708 4.166,3.959 C -15.438,-18.876 -5.243,-11.867 0,0"
       style="fill:#6398a0;fill-opacity:1;fill-rule:nonzero;stroke:none"
       transform="matrix(0.35277776,0,0,-0.35277776,169.83166,24.326355)"
       clip-path="url(#clipPath56)" />
    <path
       id="path57"
       d="M 0,0 C -14.165,33.783 27.094,102.644 62.667,106.342 55.652,97.629 48.729,89.69 42.571,81.196 36.458,72.764 31.729,63.511 30.526,52.699 c 11.642,11.987 19.425,27.155 31.141,39.007 0.566,-0.196 1.131,-0.393 1.696,-0.59 0.228,-3.888 0.823,-7.798 0.605,-11.661 C 63.571,72.384 62.705,65.338 62.014,58.283 60.614,43.983 53.407,33.429 41.201,26.126 39.3,24.988 37.372,23.881 35.386,22.9 22.765,16.665 9.314,11.771 0,0"
       style="fill:#6398a0;fill-opacity:1;fill-rule:nonzero;stroke:none"
       transform="matrix(0.35277776,0,0,-0.35277776,-54.85695,225.63172)"
       clip-path="url(#clipPath58)" />
    <path
       id="path59"
       d="M 0,0 C 1.78,11.725 7.363,22.293 11.162,34.448 4.12,29.184 0.567,22.736 -1.837,15.659 -4.155,8.84 -5.988,1.856 -8.08,-5.208 -20.709,17.396 0.759,63.583 28.616,73.34 26.514,63.52 28.286,54.079 30.033,44.655 32.624,30.677 28.346,19.345 17.027,10.789 11.75,6.8 6.254,3.103 0.857,-0.727 Z"
       style="fill:#6398a0;fill-opacity:1;fill-rule:nonzero;stroke:none"
       transform="matrix(0.35277776,0,0,-0.35277776,-49.479532,130.77687)"
       clip-path="url(#clipPath60)" />
    <path
       id="path61"
       d="m 0,0 c -4.787,-10.468 -9.329,-20.584 -14.042,-30.62 -2.091,-4.452 -4.165,-8.984 -6.881,-13.058 -6.912,-10.367 -16.336,-16.612 -29.299,-16.031 -6.994,0.313 -13.986,0.784 -20.963,1.373 -9.286,0.783 -18.556,1.751 -27.838,2.642 -0.251,0.436 -0.804,0.973 -0.698,1.289 5.428,16.146 12.486,31.421 25.286,43.172 9.329,8.564 20.56,13.277 33.291,13.07 C -27.429,1.615 -13.727,0.645 0,0"
       style="fill:#6398a0;fill-opacity:1;fill-rule:nonzero;stroke:none"
       transform="matrix(0.35277776,0,0,-0.35277776,97.675472,54.015814)"
       clip-path="url(#clipPath62)" />
    <path
       id="path63"
       d="m 0,0 c -29.902,-12.577 -90.923,23.89 -94.234,55.388 7.722,-6.203 14.759,-12.326 22.288,-17.771 7.473,-5.405 15.673,-9.584 25.248,-10.638 -10.627,10.298 -24.067,17.174 -34.574,27.539 0.172,0.501 0.346,1.002 0.52,1.502 3.443,0.206 6.904,0.736 10.326,0.547 6.263,-0.344 12.503,-1.104 18.751,-1.709 12.664,-1.225 22.019,-7.596 28.498,-18.398 1.009,-1.683 1.992,-3.39 2.863,-5.147 C -14.78,20.143 -10.433,8.236 0,0"
       style="fill:#6398a0;fill-opacity:1;fill-rule:nonzero;stroke:none"
       transform="matrix(0.35277776,0,0,-0.35277776,160.71179,215.55308)"
       clip-path="url(#clipPath64)" />
    <path
       id="path65"
       d="m 0,0 c -7.28,-4.759 -14.261,-9.392 -21.318,-13.903 -3.131,-2.002 -6.285,-4.062 -9.661,-5.57 -8.597,-3.838 -17.137,-4.027 -25.186,1.571 -4.343,3.02 -8.62,6.139 -12.841,9.329 -5.617,4.245 -11.15,8.601 -16.722,12.913 0.016,0.38 -0.121,0.946 0.074,1.105 9.978,8.127 20.647,15.042 33.564,17.39 9.414,1.71 18.49,0.193 26.542,-5.072 C -16.875,12.091 -8.511,5.946 0,0"
       style="fill:#6398a0;fill-opacity:1;fill-rule:nonzero;stroke:none"
       transform="matrix(0.35277776,0,0,-0.35277776,109.32198,221.48828)"
       clip-path="url(#clipPath66)" />
    <path
       id="path67"
       d="m 0,0 c 5.242,-10.192 10.642,-19.596 15.015,-29.454 6.535,-14.732 3.079,-27.725 -8.973,-38.422 -6.349,-5.636 -12.367,-11.643 -18.948,-17.872 -4.312,5.71 -7.789,12.949 -10.745,20.472 -6.335,16.121 -4.789,31.109 6.519,44.669 C -11.559,-13.924 -6.004,-7.224 0,0"
       style="fill:#6398a0;fill-opacity:1;fill-rule:nonzero;stroke:none"
       transform="matrix(0.35277776,0,0,-0.35277776,117.42828,184.83901)"
       clip-path="url(#clipPath68)" />
    <path
       id="path69"
       d="m 0,0 c -4.374,-12.055 -8.406,-23.866 -12.98,-35.464 -2.073,-5.253 -4.781,-10.383 -7.972,-15.042 -6.304,-9.205 -15.46,-13.809 -26.563,-14.3 -4.257,-0.189 -8.55,-0.005 -12.805,0.309 -10.217,0.753 -20.432,2.293 -30.309,-1.081 -0.411,0.7 -0.744,1.006 -0.691,1.214 3.124,12.272 6.516,24.485 12.935,35.517 7.987,13.726 20.586,21.089 35.646,24.673 13.765,3.276 27.829,4.052 41.903,4.634 C -0.578,0.471 -0.307,0.176 0,0"
       style="fill:#6398a0;fill-opacity:1;fill-rule:nonzero;stroke:none"
       transform="matrix(0.35277776,0,0,-0.35277776,-94.437002,127.77103)"
       clip-path="url(#clipPath70)" />
    <path
       id="path71"
       d="m 0,0 c -0.688,0.177 -1.319,0.141 -1.568,0.431 -7.405,8.635 -15.043,17.098 -17.293,28.872 -1.499,7.838 0.045,15.126 3.552,22.038 3.133,6.176 6.652,12.157 10.08,18.368 0.337,-0.159 0.835,-0.243 1.087,-0.537 4.106,-4.785 8.224,-9.563 12.247,-14.418 2.212,-2.67 4.529,-5.315 6.315,-8.264 4.139,-6.829 4.838,-14.46 1.255,-21.355 C 11.133,16.392 5.275,8.331 0,0"
       style="fill:#6398a0;fill-opacity:1;fill-rule:nonzero;stroke:none"
       transform="matrix(0.35277776,0,0,-0.35277776,-94.683329,163.81257)"
       clip-path="url(#clipPath72)" />
    <path
       id="path73"
       d="m 0,0 c -5.957,-1.657 -11.516,-3.415 -17.178,-4.729 -9.131,-2.118 -14.762,0.294 -19.83,8.032 -3.091,4.718 -6.207,9.419 -9.31,14.126 C -29.988,27.373 -11.515,22.276 0,0"
       style="fill:#6398a0;fill-opacity:1;fill-rule:nonzero;stroke:none"
       transform="matrix(0.35277776,0,0,-0.35277776,-94.154321,123.23917)"
       clip-path="url(#clipPath74)" />
    <path
       id="path75"
       d="m 0,0 c -7.787,2.996 -13.669,8.175 -16.682,16.177 -3.601,9.569 -3.427,19.5 -2.498,29.618 C 0.602,38.958 11.561,16.748 7.527,-1.291 5.543,3.536 4.194,7.676 2.182,11.463 0.253,15.094 -2.366,18.357 -4.682,21.782 -5.28,21.48 -5.878,21.18 -6.477,20.878 -3.726,14.271 -0.975,7.665 1.776,1.058 1.185,0.706 0.593,0.353 0,0"
       style="fill:#85b224;fill-opacity:1;fill-rule:nonzero;stroke:none"
       transform="matrix(0.35277776,0,0,-0.35277776,106.32372,86.670514)"
       clip-path="url(#clipPath76)" />
    <path
       id="path77"
       d="m 0,0 c 0,-17.98 -14.576,-32.557 -32.557,-32.557 -17.981,0 -32.557,14.577 -32.557,32.557 0,17.981 14.576,32.557 32.557,32.557 C -14.576,32.557 0,17.981 0,0"
       style="fill:#37a4af;fill-opacity:1;fill-rule:nonzero;stroke:none"
       transform="matrix(0.35277776,0,0,-0.35277776,38.364886,125.89189)"
       clip-path="url(#clipPath78)" />
    <path
       id="path79"
       d="m 0,0 c 0,-14.118 -11.444,-25.562 -25.562,-25.562 -14.118,0 -25.562,11.444 -25.562,25.562 0,14.117 11.444,25.562 25.562,25.562 C -11.444,25.562 0,14.117 0,0"
       style="fill:#37a4af;fill-opacity:1;fill-rule:nonzero;stroke:none"
       transform="matrix(0.35277776,0,0,-0.35277776,12.622462,172.67576)"
       clip-path="url(#clipPath80)" />
    <path
       id="path81"
       d="m 0,0 c 0,-14.007 -11.354,-25.361 -25.361,-25.361 -14.007,0 -25.361,11.354 -25.361,25.361 0,14.007 11.354,25.361 25.361,25.361 C -11.354,25.361 0,14.007 0,0"
       style="fill:#37a4af;fill-opacity:1;fill-rule:nonzero;stroke:none"
       transform="matrix(0.35277776,0,0,-0.35277776,64.283892,170.90361)"
       clip-path="url(#clipPath82)" />
    <path
       id="path83"
       d="M 0,0 C 21.985,8.754 32.695,6.148 37.54,-10.71 26.151,1.133 13.401,1.473 0,0 M 21.901,11.814 C -11.616,10.313 -39.778,-3.485 -62.5,-28.021 c -8.642,-9.321 -11.787,-20.852 -8.642,-33.12 1.813,-7.083 -0.396,-11.276 -4.873,-16.319 -0.057,-0.057 -0.113,-0.114 -0.142,-0.17 -36.237,-28.927 -59.497,-70.292 -71.113,-95.111 -0.539,-1.162 -1.077,-2.295 -1.558,-3.372 -4.93,-10.879 -7.339,-17.82 -7.339,-17.82 0,0 -2.776,104.8 -2.549,118.626 0.113,9.718 -0.511,19.521 0.68,29.154 4.136,34.933 17.395,66.014 50.034,88.283 1.303,0.935 2.04,2.55 4.25,5.496 -20.003,-1.813 -35.5,-9.123 -49.865,-17.339 -14.449,-8.217 -27.368,-18.642 -40.911,-28.134 -42.782,37.88 -80.096,57.429 -104.97,54.993 126.644,-110.467 116.104,-253.317 111.288,-288.194 -0.68,-5.129 -1.275,-7.934 -1.275,-7.934 0,0 -0.595,2.55 -1.643,6.998 -6.488,27.596 -30.174,127.948 -32.724,134.522 -13.94,-9.01 -27.34,-11.56 -40.713,-8.727 -10.087,4.958 -34.906,30.032 -39.92,38.163 0,0.057 -0.028,0.085 -0.057,0.113 -0.963,2.295 -1.53,4.845 -1.586,7.14 -0.312,9.69 -4.307,17.142 -11.702,22.978 -18.416,14.449 -36.832,28.927 -55.361,43.206 -2.578,2.012 -5.892,6.715 -9.066,2.607 -3.541,-4.533 2.096,-6.686 4.873,-8.981 8.897,-7.338 18.076,-14.365 26.972,-21.703 2.805,-2.323 5.1,-5.27 7.65,-7.905 -0.68,-0.736 -1.36,-1.501 -2.04,-2.238 -3.824,2.721 -7.819,5.241 -11.447,8.188 -7.932,6.431 -15.667,13.118 -23.543,19.634 -1.785,1.474 -3.541,3.174 -5.638,3.939 -1.53,0.566 -3.541,-0.256 -5.327,-0.454 0.34,-1.756 0.114,-4.165 1.162,-5.156 5.326,-4.93 10.993,-9.492 16.517,-14.195 5.044,-4.249 10.172,-8.386 15.074,-12.777 2.266,-2.012 4.108,-4.505 5.185,-7.763 -16.49,8.187 -28.106,22.835 -43.576,32.468 -4.447,-4.391 -1.926,-6.912 0.907,-9.435 9.633,-8.527 19.295,-17.027 28.842,-25.611 2.295,-2.069 4.278,-4.477 6.375,-6.743 -0.539,-0.709 -1.077,-1.417 -1.644,-2.154 -2.266,1.331 -4.816,2.324 -6.742,4.024 -8.67,7.621 -17.085,15.497 -25.754,23.118 -3.06,2.721 -6.573,4.93 -9.888,7.366 -0.709,-0.481 -1.388,-0.963 -2.097,-1.444 0.85,-2.635 0.935,-6.12 2.691,-7.764 18.502,-17.395 37.229,-34.536 55.985,-51.649 6.092,-5.581 13.599,-6.771 21.306,-4.987 2.039,0.483 3.853,0.568 5.497,0.285 4.674,-4.705 9.405,-9.407 14.222,-13.997 1.672,-1.615 3.372,-3.23 5.072,-4.817 5.212,-4.816 10.539,-9.491 16.064,-13.967 28.813,-23.232 53.236,-49.128 62.387,-83.495 2.522,-9.236 4.732,-18.557 6.516,-27.907 2.408,-12.154 4.137,-24.422 4.704,-36.634 0.708,-13.741 0.906,-27.51 0.906,-41.336 0,-3.57 -0.084,-7.168 -0.084,-10.795 0,-5.383 -0.029,-10.737 -0.114,-16.121 -0.028,-2.238 -0.057,-4.901 -0.085,-7.762 -2.295,-15.583 -5.893,-30.656 -15.187,-46.324 -16.857,-28.388 -43.064,-51.593 -75.731,-59.468 47.06,-6.262 96.075,-4.081 143.332,-4.109 47.258,-0.057 96.33,-2.153 143.333,4.109 -57.827,13.967 -89.247,68.365 -92.873,123.102 -0.708,10.597 -2.975,21.107 -5.242,31.648 0.029,28.983 3.485,62.982 12.098,102.647 0.227,0.793 0.481,1.586 0.737,2.408 9.236,29.975 22.694,60.801 41.365,91.428 0.708,0.85 1.444,1.671 2.209,2.493 1.814,1.955 6.149,3.513 8.5,2.748 19.861,-6.63 36.011,0.821 51.366,12.438 14.96,11.304 26.717,25.414 35.84,41.62 3.372,5.977 5.837,12.749 7.254,19.464 3.767,17.708 -5.554,29.182 -23.771,28.36"
       style="fill:#37a4af;fill-opacity:1;fill-rule:nonzero;stroke:none"
       transform="matrix(0.35277776,0,0,-0.35277776,97.764743,153.84367)"
       clip-path="url(#clipPath84)" />
    <path
       id="path85"
       d="m 0,0 c -0.68,-5.129 -1.275,-7.934 -1.275,-7.934 0,0 -0.595,2.55 -1.642,6.998 C -1.983,-0.624 -0.991,-0.312 0,0"
       style="fill:#0c6d93;fill-opacity:1;fill-rule:nonzero;stroke:none"
       transform="matrix(0.35277776,0,0,-0.35277776,31.368244,235.35238)"
       clip-path="url(#clipPath86)" />
    <path
       id="path89"
       d="m 0,0 c -9.039,12.266 -12.208,24.196 -10.718,38.685 -10.691,-8.531 -21.326,-14.353 -36.477,-11.548 8.47,12.7 17.978,21.188 33.749,22.918 -13.694,7.092 -20.563,17.559 -23.408,31.116 12.199,1.088 23.471,-8.167 31.11,-26.344 C -5.854,72.443 3.548,82.463 15.317,92.25 19.091,78.838 13.429,63.721 0.122,51.357 16.023,56.59 27.608,51.058 38.623,42.116 29.772,34.753 17.019,34.28 1.673,40.818 5.808,27.393 6.651,14.617 0,0"
       style="fill:#8bcff0;fill-opacity:1;fill-rule:nonzero;stroke:none"
       transform="matrix(0.35277776,0,0,-0.35277776,202.38263,105.21872)"
       clip-path="url(#clipPath90)" />
    <path
       id="path91"
       d="m 0,0 c -10.754,8.808 -15.876,18.023 -14.466,32.068 -8.099,-11.812 -17.886,-17.855 -31.551,-18.921 4.526,12.81 13.071,20.251 26.007,25.041 -13.282,2.741 -20.82,10.13 -25.925,20.733 10.05,2.672 19.705,-1.215 30.799,-12.422 0.657,12.419 5.491,22.314 15.693,30.961 C 4.113,65.018 1.624,54.756 -5.168,44.081 6.558,46.362 17.387,47.294 28.444,39.917 17.653,32.466 7.042,30.203 -6.409,34.089 1.523,23.745 2.919,13.358 0,0"
       style="fill:#8bcff0;fill-opacity:1;fill-rule:nonzero;stroke:none"
       transform="matrix(0.35277776,0,0,-0.35277776,-4.4965555,242.49612)"
       clip-path="url(#clipPath92)" />
    <path
       id="path93"
       d="M 0,0 C -2.528,10.027 3.769,18.292 17.229,22.612 18.367,8.872 11.355,-0.331 0,0"
       style="fill:#8bcff0;fill-opacity:1;fill-rule:nonzero;stroke:none"
       transform="matrix(0.35277776,0,0,-0.35277776,75.883013,106.49567)"
       clip-path="url(#clipPath94)" />
    <path
       id="path95"
       d="M 0,0 C -9.733,12.294 -10.406,20.727 -2.74,28.054 7.077,22.083 8.217,12.24 0,0"
       style="fill:#8bcff0;fill-opacity:1;fill-rule:nonzero;stroke:none"
       transform="matrix(0.35277776,0,0,-0.35277776,76.00324,119.46025)"
       clip-path="url(#clipPath96)" />
    <path
       id="path97"
       d="M 0,0 C -7.427,-12.686 -19.041,-10.188 -30.181,-11.055 -25.462,0.382 -12.031,5.337 0,0"
       style="fill:#8bcff0;fill-opacity:1;fill-rule:nonzero;stroke:none"
       transform="matrix(0.35277776,0,0,-0.35277776,73.80995,108.53706)"
       clip-path="url(#clipPath98)" />
    <path
       id="path99"
       d="M 0,0 C 13.027,-1.957 21.066,-9.305 22.62,-19.951 12.489,-23.144 4.695,-16.483 0,0"
       style="fill:#8bcff0;fill-opacity:1;fill-rule:nonzero;stroke:none"
       transform="matrix(0.35277776,0,0,-0.35277776,66.258107,99.137786)"
       clip-path="url(#clipPath100)" />
    <path
       id="path101"
       d="M 0,0 C 9.852,5.181 20.98,2.41 30.218,-7.524 17.202,-12.567 5.047,-9.541 0,0"
       style="fill:#8bcff0;fill-opacity:1;fill-rule:nonzero;stroke:none"
       transform="matrix(0.35277776,0,0,-0.35277776,76.847843,108.36395)"
       clip-path="url(#clipPath102)" />
  </g>
</svg>
