<?xml version="1.0" encoding="UTF-8" standalone="no"?>
<!-- Created with Inkscape (http://www.inkscape.org/) -->

<svg
   version="1.1"
   id="svg1"
   width="3756.4133"
   height="1333.3333"
   viewBox="0 0 3756.4133 1333.3333"
   xmlns="http://www.w3.org/2000/svg"
   xmlns:svg="http://www.w3.org/2000/svg">
  <defs
     id="defs1">
    <clipPath
       clipPathUnits="userSpaceOnUse"
       id="clipPath116034">
      <path
         d="M 0,1000 H 2817.31 V 0 H 0 Z"
         transform="translate(-207.62533,-175.10763)"
         id="path116034" />
    </clipPath>
    <clipPath
       clipPathUnits="userSpaceOnUse"
       id="clipPath116036">
      <path
         d="M 0,1000 H 2817.31 V 0 H 0 Z"
         transform="translate(-308.97643,-172.19748)"
         id="path116036" />
    </clipPath>
    <clipPath
       clipPathUnits="userSpaceOnUse"
       id="clipPath116038">
      <path
         d="M 0,1000 H 2817.31 V 0 H 0 Z"
         transform="translate(-435.84059,-229.03631)"
         id="path116038" />
    </clipPath>
    <clipPath
       clipPathUnits="userSpaceOnUse"
       id="clipPath116040">
      <path
         d="M 0,1000 H 2817.31 V 0 H 0 Z"
         transform="translate(-523.88361,-229.03631)"
         id="path116040" />
    </clipPath>
    <clipPath
       clipPathUnits="userSpaceOnUse"
       id="clipPath116042">
      <path
         d="M 0,1000 H 2817.31 V 0 H 0 Z"
         transform="translate(-610.81822,-172.19748)"
         id="path116042" />
    </clipPath>
    <clipPath
       clipPathUnits="userSpaceOnUse"
       id="clipPath116044">
      <path
         d="M 0,1000 H 2817.31 V 0 H 0 Z"
         transform="translate(-666.97492,-196.5949)"
         id="path116044" />
    </clipPath>
    <clipPath
       clipPathUnits="userSpaceOnUse"
       id="clipPath116046">
      <path
         d="M 0,1000 H 2817.31 V 0 H 0 Z"
         transform="translate(-792.86114,-172.19748)"
         id="path116046" />
    </clipPath>
    <clipPath
       clipPathUnits="userSpaceOnUse"
       id="clipPath116048">
      <path
         d="M 0,1000 H 2817.31 V 0 H 0 Z"
         transform="translate(-929.9778,-181.76388)"
         id="path116048" />
    </clipPath>
    <clipPath
       clipPathUnits="userSpaceOnUse"
       id="clipPath116050">
      <path
         d="M 0,1000 H 2817.31 V 0 H 0 Z"
         transform="translate(-1048.1039,-181.76388)"
         id="path116050" />
    </clipPath>
    <clipPath
       clipPathUnits="userSpaceOnUse"
       id="clipPath116052">
      <path
         d="M 0,1000 H 2817.31 V 0 H 0 Z"
         transform="translate(-1103.4374,-181.3459)"
         id="path116052" />
    </clipPath>
    <clipPath
       clipPathUnits="userSpaceOnUse"
       id="clipPath116054">
      <path
         d="M 0,1000 H 2817.31 V 0 H 0 Z"
         transform="translate(-1484.8187,-175.10763)"
         id="path116054" />
    </clipPath>
    <clipPath
       clipPathUnits="userSpaceOnUse"
       id="clipPath116056">
      <path
         d="M 0,1000 H 2817.31 V 0 H 0 Z"
         transform="translate(-1545.4076,-150.8488)"
         id="path116056" />
    </clipPath>
    <clipPath
       clipPathUnits="userSpaceOnUse"
       id="clipPath116058">
      <path
         d="M 0,1000 H 2817.31 V 0 H 0 Z"
         transform="translate(-1675.8764,-181.3459)"
         id="path116058" />
    </clipPath>
    <clipPath
       clipPathUnits="userSpaceOnUse"
       id="clipPath116060">
      <path
         d="M 0,1000 H 2817.31 V 0 H 0 Z"
         transform="translate(-1811.1996,-145.1623)"
         id="path116060" />
    </clipPath>
    <clipPath
       clipPathUnits="userSpaceOnUse"
       id="clipPath116062">
      <path
         d="M 0,1000 H 2817.31 V 0 H 0 Z"
         transform="translate(-1988.3802,-181.76388)"
         id="path116062" />
    </clipPath>
    <clipPath
       clipPathUnits="userSpaceOnUse"
       id="clipPath116064">
      <path
         d="M 0,1000 H 2817.31 V 0 H 0 Z"
         transform="translate(-2032.2026,-236.24441)"
         id="path116064" />
    </clipPath>
    <clipPath
       clipPathUnits="userSpaceOnUse"
       id="clipPath116066">
      <path
         d="M 0,1000 H 2817.31 V 0 H 0 Z"
         transform="translate(-2166.4182,-236.24441)"
         id="path116066" />
    </clipPath>
    <clipPath
       clipPathUnits="userSpaceOnUse"
       id="clipPath116068">
      <path
         d="M 0,1000 H 2817.31 V 0 H 0 Z"
         transform="translate(-2287.7424,-196.5949)"
         id="path116068" />
    </clipPath>
    <clipPath
       clipPathUnits="userSpaceOnUse"
       id="clipPath116070">
      <path
         d="M 0,1000 H 2817.31 V 0 H 0 Z"
         transform="translate(-2409.1965,-150.8488)"
         id="path116070" />
    </clipPath>
    <clipPath
       clipPathUnits="userSpaceOnUse"
       id="clipPath116072">
      <path
         d="M 0,1000 H 2817.31 V 0 H 0 Z"
         transform="translate(-2522.3382,-196.5949)"
         id="path116072" />
    </clipPath>
    <clipPath
       clipPathUnits="userSpaceOnUse"
       id="clipPath116074">
      <path
         d="M 0,1000 H 2817.31 V 0 H 0 Z"
         transform="translate(-365.48863,-196.5949)"
         id="path116074" />
    </clipPath>
    <clipPath
       clipPathUnits="userSpaceOnUse"
       id="clipPath116076">
      <path
         d="M 0,1000 H 2817.31 V 0 H 0 Z"
         transform="translate(-2593.0461,-229.03631)"
         id="path116076" />
    </clipPath>
    <clipPath
       clipPathUnits="userSpaceOnUse"
       id="clipPath116078">
      <path
         d="M 0,1000 H 2817.31 V 0 H 0 Z"
         transform="translate(-2678.8685,-167.8996)"
         id="path116078" />
    </clipPath>
    <clipPath
       clipPathUnits="userSpaceOnUse"
       id="clipPath116080">
      <path
         d="M 0,1000 H 2817.31 V 0 H 0 Z"
         transform="translate(-848.30115,-462.34401)"
         id="path116080" />
    </clipPath>
    <clipPath
       clipPathUnits="userSpaceOnUse"
       id="clipPath116082">
      <path
         d="M 0,1000 H 2817.31 V 0 H 0 Z"
         transform="translate(-966.94665,-708.79812)"
         id="path116082" />
    </clipPath>
    <clipPath
       clipPathUnits="userSpaceOnUse"
       id="clipPath116084">
      <path
         d="M 0,1000 H 2817.31 V 0 H 0 Z"
         transform="translate(-1601.894,-778.38402)"
         id="path116084" />
    </clipPath>
    <clipPath
       clipPathUnits="userSpaceOnUse"
       id="clipPath116086">
      <path
         d="M 0,1000 H 2817.31 V 0 H 0 Z"
         transform="translate(-1642.2963,-578.18291)"
         id="path116086" />
    </clipPath>
    <clipPath
       clipPathUnits="userSpaceOnUse"
       id="clipPath116088">
      <path
         d="M 0,1000 H 2817.31 V 0 H 0 Z"
         transform="translate(-871.8714,-325.81171)"
         id="path116088" />
    </clipPath>
    <clipPath
       clipPathUnits="userSpaceOnUse"
       id="clipPath116090">
      <path
         d="M 0,1000 H 2817.31 V 0 H 0 Z"
         transform="translate(-572.88171,-654.64772)"
         id="path116090" />
    </clipPath>
    <clipPath
       clipPathUnits="userSpaceOnUse"
       id="clipPath116092">
      <path
         d="M 0,1000 H 2817.31 V 0 H 0 Z"
         transform="translate(-994.93635,-765.33622)"
         id="path116092" />
    </clipPath>
    <clipPath
       clipPathUnits="userSpaceOnUse"
       id="clipPath116094">
      <path
         d="M 0,1000 H 2817.31 V 0 H 0 Z"
         transform="translate(-1016.2304,-726.10572)"
         id="path116094" />
    </clipPath>
    <clipPath
       clipPathUnits="userSpaceOnUse"
       id="clipPath116096">
      <path
         d="M 0,1000 H 2817.31 V 0 H 0 Z"
         transform="translate(-914.35245,-682.19361)"
         id="path116096" />
    </clipPath>
    <clipPath
       clipPathUnits="userSpaceOnUse"
       id="clipPath116098">
      <path
         d="M 0,1000 H 2817.31 V 0 H 0 Z"
         transform="translate(-1277.7782,-884.38792)"
         id="path116098" />
    </clipPath>
    <clipPath
       clipPathUnits="userSpaceOnUse"
       id="clipPath116100">
      <path
         d="M 0,1000 H 2817.31 V 0 H 0 Z"
         transform="translate(-1748.2914,-429.57441)"
         id="path116100" />
    </clipPath>
    <clipPath
       clipPathUnits="userSpaceOnUse"
       id="clipPath116102">
      <path
         d="M 0,1000 H 2817.31 V 0 H 0 Z"
         transform="translate(-1802.2152,-510.17312)"
         id="path116102" />
    </clipPath>
    <clipPath
       clipPathUnits="userSpaceOnUse"
       id="clipPath116104">
      <path
         d="M 0,1000 H 2817.31 V 0 H 0 Z"
         transform="translate(-1626.5385,-532.18581)"
         id="path116104" />
    </clipPath>
    <clipPath
       clipPathUnits="userSpaceOnUse"
       id="clipPath116106">
      <path
         d="M 0,1000 H 2817.31 V 0 H 0 Z"
         transform="translate(-1681.5776,-767.41142)"
         id="path116106" />
    </clipPath>
    <clipPath
       clipPathUnits="userSpaceOnUse"
       id="clipPath116108">
      <path
         d="M 0,1000 H 2817.31 V 0 H 0 Z"
         transform="translate(-1749.059,-608.86062)"
         id="path116108" />
    </clipPath>
    <clipPath
       clipPathUnits="userSpaceOnUse"
       id="clipPath116110">
      <path
         d="M 0,1000 H 2817.31 V 0 H 0 Z"
         transform="translate(-1568.4164,-724.69562)"
         id="path116110" />
    </clipPath>
    <clipPath
       clipPathUnits="userSpaceOnUse"
       id="clipPath116112">
      <path
         d="M 0,1000 H 2817.31 V 0 H 0 Z"
         transform="translate(-980.14732,-440.15061)"
         id="path116112" />
    </clipPath>
    <clipPath
       clipPathUnits="userSpaceOnUse"
       id="clipPath116114">
      <path
         d="M 0,1000 H 2817.31 V 0 H 0 Z"
         transform="translate(-1023.0545,-712.12522)"
         id="path116114" />
    </clipPath>
    <clipPath
       clipPathUnits="userSpaceOnUse"
       id="clipPath116116">
      <path
         d="M 0,1000 H 2817.31 V 0 H 0 Z"
         transform="translate(-980.8743,-410.69061)"
         id="path116116" />
    </clipPath>
    <clipPath
       clipPathUnits="userSpaceOnUse"
       id="clipPath116118">
      <path
         d="M 0,1000 H 2817.31 V 0 H 0 Z"
         transform="translate(-1516.349,-842.75022)"
         id="path116118" />
    </clipPath>
    <clipPath
       clipPathUnits="userSpaceOnUse"
       id="clipPath116120">
      <path
         d="M 0,1000 H 2817.31 V 0 H 0 Z"
         transform="translate(-1184.4735,-937.41632)"
         id="path116120" />
    </clipPath>
    <clipPath
       clipPathUnits="userSpaceOnUse"
       id="clipPath116122">
      <path
         d="M 0,1000 H 2817.31 V 0 H 0 Z"
         transform="translate(-1096.2944,-898.49242)"
         id="path116122" />
    </clipPath>
    <clipPath
       clipPathUnits="userSpaceOnUse"
       id="clipPath116124">
      <path
         d="M 0,1000 H 2817.31 V 0 H 0 Z"
         transform="translate(-1396.8612,-743.92902)"
         id="path116124" />
    </clipPath>
    <clipPath
       clipPathUnits="userSpaceOnUse"
       id="clipPath116126">
      <path
         d="M 0,1000 H 2817.31 V 0 H 0 Z"
         transform="translate(-1137.3857,-725.01592)"
         id="path116126" />
    </clipPath>
    <clipPath
       clipPathUnits="userSpaceOnUse"
       id="clipPath116128">
      <path
         d="M 0,1000 H 2817.31 V 0 H 0 Z"
         transform="translate(-1206.8807,-749.47882)"
         id="path116128" />
    </clipPath>
    <clipPath
       clipPathUnits="userSpaceOnUse"
       id="clipPath116130">
      <path
         d="M 0,1000 H 2817.31 V 0 H 0 Z"
         transform="translate(-960.50572,-631.36352)"
         id="path116130" />
    </clipPath>
    <clipPath
       clipPathUnits="userSpaceOnUse"
       id="clipPath116132">
      <path
         d="M 0,1000 H 2817.31 V 0 H 0 Z"
         transform="translate(-1529.6097,-637.76492)"
         id="path116132" />
    </clipPath>
    <clipPath
       clipPathUnits="userSpaceOnUse"
       id="clipPath116134">
      <path
         d="M 0,1000 H 2817.31 V 0 H 0 Z"
         transform="translate(-1696.098,-914.48172)"
         id="path116134" />
    </clipPath>
    <clipPath
       clipPathUnits="userSpaceOnUse"
       id="clipPath116136">
      <path
         d="M 0,1000 H 2817.31 V 0 H 0 Z"
         transform="translate(-1023.1601,-311.57641)"
         id="path116136" />
    </clipPath>
    <clipPath
       clipPathUnits="userSpaceOnUse"
       id="clipPath116138">
      <path
         d="M 0,1000 H 2817.31 V 0 H 0 Z"
         transform="translate(-1039.265,-595.66431)"
         id="path116138" />
    </clipPath>
    <clipPath
       clipPathUnits="userSpaceOnUse"
       id="clipPath116140">
      <path
         d="M 0,1000 H 2817.31 V 0 H 0 Z"
         transform="translate(-1479.9917,-825.56182)"
         id="path116140" />
    </clipPath>
    <clipPath
       clipPathUnits="userSpaceOnUse"
       id="clipPath116142">
      <path
         d="M 0,1000 H 2817.31 V 0 H 0 Z"
         transform="translate(-1668.7845,-341.76101)"
         id="path116142" />
    </clipPath>
    <clipPath
       clipPathUnits="userSpaceOnUse"
       id="clipPath116144">
      <path
         d="M 0,1000 H 2817.31 V 0 H 0 Z"
         transform="translate(-1514.8734,-323.98461)"
         id="path116144" />
    </clipPath>
    <clipPath
       clipPathUnits="userSpaceOnUse"
       id="clipPath116146">
      <path
         d="M 0,1000 H 2817.31 V 0 H 0 Z"
         transform="translate(-1539.1508,-433.74921)"
         id="path116146" />
    </clipPath>
    <clipPath
       clipPathUnits="userSpaceOnUse"
       id="clipPath116148">
      <path
         d="M 0,1000 H 2817.31 V 0 H 0 Z"
         transform="translate(-904.6185,-604.66632)"
         id="path116148" />
    </clipPath>
    <clipPath
       clipPathUnits="userSpaceOnUse"
       id="clipPath116150">
      <path
         d="M 0,1000 H 2817.31 V 0 H 0 Z"
         transform="translate(-903.88072,-496.72381)"
         id="path116150" />
    </clipPath>
    <clipPath
       clipPathUnits="userSpaceOnUse"
       id="clipPath116152">
      <path
         d="M 0,1000 H 2817.31 V 0 H 0 Z"
         transform="translate(-905.4651,-618.23952)"
         id="path116152" />
    </clipPath>
    <clipPath
       clipPathUnits="userSpaceOnUse"
       id="clipPath116154">
      <path
         d="M 0,1000 H 2817.31 V 0 H 0 Z"
         transform="translate(-1505.8929,-727.76202)"
         id="path116154" />
    </clipPath>
    <clipPath
       clipPathUnits="userSpaceOnUse"
       id="clipPath116156">
      <path
         d="M 0,1000 H 2817.31 V 0 H 0 Z"
         transform="translate(-1302.3578,-610.29522)"
         id="path116156" />
    </clipPath>
    <clipPath
       clipPathUnits="userSpaceOnUse"
       id="clipPath116158">
      <path
         d="M 0,1000 H 2817.31 V 0 H 0 Z"
         transform="translate(-1225.2596,-470.17791)"
         id="path116158" />
    </clipPath>
    <clipPath
       clipPathUnits="userSpaceOnUse"
       id="clipPath116160">
      <path
         d="M 0,1000 H 2817.31 V 0 H 0 Z"
         transform="translate(-1379.9843,-475.48561)"
         id="path116160" />
    </clipPath>
    <clipPath
       clipPathUnits="userSpaceOnUse"
       id="clipPath116162">
      <path
         d="M 0,1000 H 2817.31 V 0 H 0 Z"
         transform="translate(-1480.2593,-526.57931)"
         id="path116162" />
    </clipPath>
    <clipPath
       clipPathUnits="userSpaceOnUse"
       id="clipPath116164">
      <path
         d="M 0,1000 H 2817.31 V 0 H 0 Z"
         transform="translate(-1281.4032,-282.46211)"
         id="path116164" />
    </clipPath>
    <clipPath
       clipPathUnits="userSpaceOnUse"
       id="clipPath116166">
      <path
         d="M 0,1000 H 2817.31 V 0 H 0 Z"
         transform="translate(-684.57704,-645.92802)"
         id="path116166" />
    </clipPath>
    <clipPath
       clipPathUnits="userSpaceOnUse"
       id="clipPath116168">
      <path
         d="M 0,1000 H 2817.31 V 0 H 0 Z"
         transform="translate(-1793.5874,-672.21021)"
         id="path116168" />
    </clipPath>
    <clipPath
       clipPathUnits="userSpaceOnUse"
       id="clipPath116170">
      <path
         d="M 0,1000 H 2817.31 V 0 H 0 Z"
         transform="translate(-1173.9887,-261.06761)"
         id="path116170" />
    </clipPath>
    <clipPath
       clipPathUnits="userSpaceOnUse"
       id="clipPath116172">
      <path
         d="M 0,1000 H 2817.31 V 0 H 0 Z"
         transform="translate(-1414.7235,-668.38602)"
         id="path116172" />
    </clipPath>
    <clipPath
       clipPathUnits="userSpaceOnUse"
       id="clipPath116174">
      <path
         d="M 0,1000 H 2817.31 V 0 H 0 Z"
         transform="translate(-1415.084,-629.55692)"
         id="path116174" />
    </clipPath>
    <clipPath
       clipPathUnits="userSpaceOnUse"
       id="clipPath116176">
      <path
         d="M 0,1000 H 2817.31 V 0 H 0 Z"
         transform="translate(-1408.5146,-662.27172)"
         id="path116176" />
    </clipPath>
    <clipPath
       clipPathUnits="userSpaceOnUse"
       id="clipPath116178">
      <path
         d="M 0,1000 H 2817.31 V 0 H 0 Z"
         transform="translate(-1385.8973,-690.42312)"
         id="path116178" />
    </clipPath>
    <clipPath
       clipPathUnits="userSpaceOnUse"
       id="clipPath116180">
      <path
         d="M 0,1000 H 2817.31 V 0 H 0 Z"
         transform="translate(-1417.6133,-662.79032)"
         id="path116180" />
    </clipPath>
  </defs>
  <g
     id="layer-MC0"
     transform="translate(-3776.4134)">
    <path
       id="path116033"
       d="m 0,0 c 0.694,0 0.832,0.418 0.694,0.832 l -12.481,34.244 c -0.138,0.552 -0.276,1.246 -0.69,1.246 -0.418,0 -0.694,-0.694 -0.832,-1.246 L -26.065,0.971 C -26.204,0.418 -26.065,0 -25.509,0 Z m -28.282,-6.933 c -0.694,0 -0.969,-0.275 -1.25,-1.107 l -7.484,-19.823 c -1.388,-3.466 -2.078,-6.794 -2.078,-8.458 0,-2.496 1.246,-4.299 5.544,-4.299 h 2.078 c 1.664,0 2.082,-0.276 2.082,-1.108 0,-1.108 -0.832,-1.383 -2.358,-1.383 -4.436,0 -10.398,0.414 -14.696,0.414 -1.522,0 -9.149,-0.414 -16.357,-0.414 -1.802,0 -2.635,0.275 -2.635,1.383 0,0.832 0.557,1.108 1.665,1.108 1.246,0 3.186,0.142 4.298,0.28 6.376,0.832 9.011,5.545 11.783,12.477 l 34.795,87.06 c 1.664,4.018 2.496,5.544 3.884,5.544 1.246,0 2.078,-1.246 3.467,-4.436 3.324,-7.626 25.504,-64.185 34.377,-85.258 5.268,-12.477 9.291,-14.416 12.201,-15.11 2.078,-0.415 4.16,-0.557 5.824,-0.557 1.108,0 1.802,-0.138 1.802,-1.108 0,-1.108 -1.25,-1.383 -6.38,-1.383 -4.988,0 -15.111,0 -26.199,0.275 -2.497,0.139 -4.161,0.139 -4.161,1.108 0,0.832 0.557,1.108 1.94,1.25 0.97,0.277 1.945,1.522 1.25,3.187 L 4.018,-7.902 c -0.276,0.694 -0.69,0.969 -1.384,0.969 z"
       style="fill:#37a4af;fill-opacity:1;fill-rule:nonzero;stroke:none"
       transform="matrix(1.3333333,0,0,-1.3333333,4053.2471,1099.8565)"
       clip-path="url(#clipPath116034)" />
    <path
       id="path116035"
       d="m 0,0 c 0,-17.744 0,-27.311 2.91,-29.808 2.358,-2.077 5.962,-3.047 16.775,-3.047 7.35,0 12.756,0.138 16.223,3.879 1.664,1.803 3.323,5.687 3.604,8.322 0.138,1.246 0.414,2.078 1.522,2.078 0.97,0 1.112,-0.695 1.112,-2.359 0,-1.522 -0.97,-11.92 -2.083,-15.943 -0.832,-3.048 -1.521,-3.741 -8.734,-3.741 -9.98,0 -17.188,0.275 -23.427,0.418 -6.238,0.275 -11.23,0.414 -16.913,0.414 -1.526,0 -4.573,0 -7.902,-0.139 -3.19,0 -6.795,-0.275 -9.566,-0.275 -1.802,0 -2.772,0.414 -2.772,1.384 0,0.694 0.556,1.107 2.22,1.107 2.078,0 3.742,0.28 4.988,0.557 2.772,0.555 3.466,3.604 4.022,7.626 0.694,5.82 0.694,16.77 0.694,29.527 v 24.397 c 0,21.074 0,24.954 -0.28,29.39 -0.276,4.716 -1.384,6.932 -5.958,7.902 -1.112,0.28 -2.776,0.418 -4.579,0.418 -1.522,0 -2.354,0.276 -2.354,1.247 0,0.969 0.971,1.25 3.049,1.25 6.518,0 15.248,-0.418 18.994,-0.418 3.325,0 13.447,0.418 18.853,0.418 1.94,0 2.911,-0.281 2.911,-1.25 0,-0.971 -0.832,-1.247 -2.496,-1.247 -1.522,0 -3.743,-0.138 -5.407,-0.418 C 1.664,60.999 0.556,58.641 0.276,53.787 0,49.351 0,45.471 0,24.397 Z"
       style="fill:#37a4af;fill-opacity:1;fill-rule:nonzero;stroke:none"
       transform="matrix(1.3333333,0,0,-1.3333333,4188.3819,1103.7367)"
       clip-path="url(#clipPath116036)" />
    <path
       id="path116037"
       d="m 0,0 -20.655,-0.556 c -8.04,-0.276 -11.368,-0.97 -13.446,-4.018 -1.388,-2.082 -2.078,-3.742 -2.358,-4.855 -0.276,-1.107 -0.69,-1.664 -1.522,-1.664 -0.971,0 -1.25,0.695 -1.25,2.221 0,2.216 2.633,14.834 2.91,15.942 0.418,1.802 0.832,2.634 1.664,2.634 1.112,0 2.496,-1.388 5.962,-1.664 4.022,-0.418 9.29,-0.693 13.864,-0.693 h 54.899 c 4.436,0 7.484,0.418 9.562,0.693 2.083,0.414 3.191,0.694 3.747,0.694 0.97,0 1.108,-0.832 1.108,-2.914 0,-2.91 -0.418,-12.476 -0.418,-16.081 -0.138,-1.384 -0.414,-2.216 -1.246,-2.216 -1.108,0 -1.388,0.695 -1.527,2.773 l -0.137,1.525 C 50.881,-4.574 47.139,-0.694 34.8,-0.418 L 17.331,0 v -56.839 c 0,-12.757 0,-23.707 0.694,-29.669 0.414,-3.88 1.246,-6.929 5.406,-7.484 1.941,-0.277 4.988,-0.557 7.07,-0.557 1.527,0 2.217,-0.413 2.217,-1.107 0,-0.97 -1.108,-1.384 -2.635,-1.384 -9.148,0 -17.882,0.414 -21.762,0.414 -3.191,0 -11.925,-0.414 -17.469,-0.414 -1.802,0 -2.772,0.414 -2.772,1.384 0,0.694 0.556,1.107 2.216,1.107 2.082,0 3.746,0.28 4.992,0.557 2.772,0.555 3.604,3.604 4.022,7.626 C 0,-80.546 0,-69.596 0,-56.839 Z"
       style="fill:#37a4af;fill-opacity:1;fill-rule:nonzero;stroke:none"
       transform="matrix(1.3333333,0,0,-1.3333333,4357.5341,1027.9516)"
       clip-path="url(#clipPath116038)" />
    <path
       id="path116039"
       d="m 0,0 -20.655,-0.556 c -8.04,-0.276 -11.368,-0.97 -13.447,-4.018 -1.388,-2.082 -2.078,-3.742 -2.358,-4.855 -0.276,-1.107 -0.69,-1.664 -1.522,-1.664 -0.974,0 -1.25,0.695 -1.25,2.221 0,2.216 2.634,14.834 2.91,15.942 0.418,1.802 0.832,2.634 1.664,2.634 1.113,0 2.496,-1.388 5.963,-1.664 4.022,-0.418 9.29,-0.693 13.864,-0.693 h 54.899 c 4.436,0 7.484,0.418 9.562,0.693 2.082,0.414 3.19,0.694 3.746,0.694 0.97,0 1.108,-0.832 1.108,-2.914 0,-2.91 -0.418,-12.476 -0.418,-16.081 -0.138,-1.384 -0.414,-2.216 -1.246,-2.216 -1.108,0 -1.388,0.695 -1.526,2.773 l -0.138,1.525 c -0.276,3.605 -4.018,7.485 -16.357,7.761 L 17.331,0 v -56.839 c 0,-12.757 0,-23.707 0.694,-29.669 0.413,-3.88 1.246,-6.929 5.406,-7.484 1.94,-0.277 4.988,-0.557 7.07,-0.557 1.522,0 2.216,-0.413 2.216,-1.107 0,-0.97 -1.108,-1.384 -2.634,-1.384 -9.148,0 -17.883,0.414 -21.763,0.414 -3.19,0 -11.924,-0.414 -17.468,-0.414 -1.803,0 -2.773,0.414 -2.773,1.384 0,0.694 0.556,1.107 2.216,1.107 2.082,0 3.747,0.28 4.993,0.557 2.772,0.555 3.604,3.604 4.022,7.626 C 0,-80.546 0,-69.596 0,-56.839 Z"
       style="fill:#37a4af;fill-opacity:1;fill-rule:nonzero;stroke:none"
       transform="matrix(1.3333333,0,0,-1.3333333,4474.9248,1027.9516)"
       clip-path="url(#clipPath116040)" />
    <path
       id="path116041"
       d="m 0,0 c 0,-17.744 0,-27.311 2.91,-29.808 2.358,-2.077 5.962,-3.047 16.775,-3.047 7.35,0 12.756,0.138 16.223,3.879 1.659,1.803 3.323,5.687 3.604,8.322 0.137,1.246 0.414,2.078 1.522,2.078 0.974,0 1.112,-0.695 1.112,-2.359 0,-1.522 -0.97,-11.92 -2.083,-15.943 -0.832,-3.048 -1.521,-3.741 -8.734,-3.741 -9.98,0 -17.188,0.275 -23.427,0.418 -6.238,0.275 -11.231,0.414 -16.913,0.414 -1.526,0 -4.574,0 -7.902,-0.139 -3.186,0 -6.795,-0.275 -9.566,-0.275 -1.803,0 -2.772,0.414 -2.772,1.384 0,0.694 0.556,1.107 2.22,1.107 2.078,0 3.742,0.28 4.988,0.557 2.772,0.555 3.466,3.604 4.022,7.626 0.694,5.82 0.694,16.77 0.694,29.527 v 24.397 c 0,21.074 0,24.954 -0.28,29.39 -0.276,4.716 -1.384,6.932 -5.958,7.902 -1.112,0.28 -2.776,0.418 -4.579,0.418 -1.522,0 -2.354,0.276 -2.354,1.247 0,0.969 0.971,1.25 3.048,1.25 6.519,0 15.249,-0.418 18.995,-0.418 3.325,0 13.447,0.418 18.853,0.418 1.94,0 2.911,-0.281 2.911,-1.25 0,-0.971 -0.832,-1.247 -2.497,-1.247 -1.521,0 -3.742,-0.138 -5.406,-0.418 C 1.664,60.999 0.556,58.641 0.276,53.787 0,49.351 0,45.471 0,24.397 Z"
       style="fill:#37a4af;fill-opacity:1;fill-rule:nonzero;stroke:none"
       transform="matrix(1.3333333,0,0,-1.3333333,4590.8376,1103.7367)"
       clip-path="url(#clipPath116042)" />
    <path
       id="path116043"
       d="m 0,0 c 0,21.073 0,24.953 -0.28,29.39 -0.276,4.715 -1.384,6.931 -5.958,7.902 -1.113,0.279 -3.466,0.418 -5.41,0.418 -1.522,0 -2.354,0.275 -2.354,1.246 0,0.97 0.969,1.25 3.047,1.25 3.747,0 7.765,-0.143 11.231,-0.143 3.604,-0.137 6.794,-0.275 8.735,-0.275 4.436,0 32.023,0 34.657,0.138 2.634,0.28 4.85,0.555 5.962,0.832 0.69,0.138 1.522,0.555 2.216,0.555 0.695,0 0.833,-0.555 0.833,-1.25 0,-0.969 -0.695,-2.629 -1.109,-9.009 -0.137,-1.385 -0.418,-7.485 -0.694,-9.149 -0.138,-0.694 -0.418,-1.526 -1.388,-1.526 -0.97,0 -1.246,0.694 -1.246,1.94 0,0.974 -0.138,3.328 -0.832,4.993 -0.97,2.496 -2.358,4.16 -9.286,4.992 -2.358,0.275 -16.913,0.551 -19.689,0.551 -0.69,0 -0.97,-0.414 -0.97,-1.383 V -3.604 c 0,-0.97 0.138,-1.522 0.97,-1.522 3.052,0 18.995,0 22.181,0.275 3.328,0.277 5.41,0.695 6.656,2.079 0.97,1.108 1.526,1.802 2.216,1.802 0.556,0 0.97,-0.276 0.97,-1.108 0,-0.832 -0.552,-3.048 -1.108,-10.118 -0.138,-2.777 -0.552,-8.321 -0.552,-9.291 0,-1.108 0,-2.634 -1.25,-2.634 -0.97,0 -1.246,0.556 -1.246,1.25 -0.138,1.384 -0.138,3.186 -0.556,4.988 -0.694,2.773 -2.634,4.855 -7.764,5.406 -2.634,0.281 -16.357,0.418 -19.685,0.418 -0.694,0 -0.832,-0.555 -0.832,-1.387 v -10.951 c 0,-4.712 -0.138,-17.469 0,-21.487 0.28,-9.566 2.496,-11.649 16.637,-11.649 3.604,0 9.428,0 13.032,1.664 3.604,1.664 5.268,4.579 6.239,10.261 0.275,1.526 0.551,2.078 1.525,2.078 1.109,0 1.109,-1.108 1.109,-2.496 0,-3.186 -1.109,-12.615 -1.802,-15.387 -0.971,-3.604 -2.221,-3.604 -7.489,-3.604 -10.394,0 -18.021,0.276 -23.983,0.418 -5.958,0.276 -10.256,0.414 -14.417,0.414 -1.525,0 -4.574,0 -7.902,-0.138 -3.19,0 -6.794,-0.276 -9.566,-0.276 -1.803,0 -2.772,0.414 -2.772,1.384 0,0.694 0.555,1.108 2.22,1.108 2.078,0 3.742,0.28 4.988,0.556 2.772,0.556 3.466,3.605 4.022,7.626 C 0,-48.104 0,-37.154 0,-24.397 Z"
       style="fill:#37a4af;fill-opacity:1;fill-rule:nonzero;stroke:none"
       transform="matrix(1.3333333,0,0,-1.3333333,4665.7132,1071.2068)"
       clip-path="url(#clipPath116044)" />
    <path
       id="path116045"
       d="m 0,0 c 0,-13.309 0,-23.707 0.694,-29.527 0.418,-4.022 1.246,-7.071 5.407,-7.626 1.94,-0.277 4.992,-0.557 6.932,-0.557 1.802,0 2.358,-0.413 2.358,-1.107 0,-0.97 -0.97,-1.384 -3.052,-1.384 -8.735,0 -17.465,0.414 -21.073,0.414 -3.604,0 -12.335,-0.414 -17.603,-0.414 -1.944,0 -2.914,0.275 -2.914,1.384 0,0.694 0.556,1.107 2.082,1.107 2.078,0 3.742,0.28 4.988,0.557 2.772,0.555 3.466,3.604 4.022,7.626 0.694,5.82 0.694,16.218 0.694,29.527 v 24.397 c 0,21.074 0,24.954 -0.28,29.39 -0.276,4.716 -1.384,6.932 -5.958,7.902 -1.112,0.28 -3.466,0.418 -5.406,0.418 -1.388,0 -2.358,0.276 -2.358,1.108 0,1.108 1.108,1.389 3.186,1.389 3.604,0 7.626,-0.143 11.23,-0.143 3.605,-0.138 6.795,-0.275 8.735,-0.275 5.268,0 33.411,0 36.597,0.137 2.635,0.138 4.299,0.138 5.687,0.556 0.832,0.276 1.522,0.832 2.216,0.832 0.556,0 0.97,-0.556 0.97,-1.25 0,-0.97 -0.694,-2.63 -1.108,-6.238 -0.138,-1.384 -0.418,-9.563 -0.694,-11.227 -0.138,-1.107 -0.414,-1.939 -1.384,-1.939 -0.97,0 -1.25,0.689 -1.388,2.215 0,1.109 0,3.329 -0.832,5.269 -0.971,1.939 -3.88,4.022 -9.149,4.16 L 1.25,57.115 C 0.418,57.115 0,56.701 0,55.175 V 20.518 c 0,-0.832 0.138,-1.247 0.97,-1.247 l 17.745,0.138 c 2.358,0 4.298,0 6.238,0.138 2.634,0.139 4.579,0.694 5.963,2.496 0.693,0.832 0.97,1.385 1.802,1.385 0.556,0 0.832,-0.414 0.832,-1.246 0,-0.832 -0.695,-4.299 -1.108,-8.597 -0.276,-2.772 -0.556,-9.148 -0.556,-10.118 0,-1.25 0,-2.635 -1.385,-2.635 -0.832,0 -1.111,0.971 -1.111,1.94 0,0.97 -0.277,2.634 -0.833,4.298 -0.689,1.941 -2.772,4.437 -7.066,4.989 C 18.025,12.477 3.328,12.477 0.97,12.477 0.28,12.477 0,12.201 0,11.227 Z"
       style="fill:#37a4af;fill-opacity:1;fill-rule:nonzero;stroke:none"
       transform="matrix(1.3333333,0,0,-1.3333333,4833.5615,1103.7367)"
       clip-path="url(#clipPath116046)" />
    <path
       id="path116047"
       d="m 0,0 c 0,31.054 -17.883,50.32 -40.616,50.32 -15.942,0 -34.105,-8.872 -34.105,-43.391 0,-28.833 15.943,-51.709 42.56,-51.709 C -22.457,-44.78 0,-40.067 0,0 m -93.85,2.635 c 0,23.703 15.662,54.342 57.252,54.342 34.52,0 56.007,-20.103 56.007,-51.85 0,-31.744 -22.181,-56.839 -57.39,-56.839 -39.789,0 -55.869,29.808 -55.869,54.347"
       style="fill:#37a4af;fill-opacity:1;fill-rule:nonzero;stroke:none"
       transform="matrix(1.3333333,0,0,-1.3333333,5016.3837,1090.9815)"
       clip-path="url(#clipPath116048)" />
    <path
       id="path116049"
       d="m 0,0 c 0,31.054 -17.883,50.32 -40.616,50.32 -15.942,0 -34.105,-8.872 -34.105,-43.391 0,-28.833 15.943,-51.709 42.56,-51.709 C -22.457,-44.78 0,-40.067 0,0 m -93.85,2.635 c 0,23.703 15.662,54.342 57.252,54.342 34.52,0 56.007,-20.103 56.007,-51.85 0,-31.744 -22.181,-56.839 -57.391,-56.839 -39.788,0 -55.868,29.808 -55.868,54.347"
       style="fill:#37a4af;fill-opacity:1;fill-rule:nonzero;stroke:none"
       transform="matrix(1.3333333,0,0,-1.3333333,5173.8852,1090.9815)"
       clip-path="url(#clipPath116050)" />
    <path
       id="path116051"
       d="m 0,0 c 0,-14.692 0.138,-25.367 0.276,-28.001 0.142,-3.466 0.418,-9.015 1.526,-10.536 1.802,-2.635 7.208,-5.549 18.163,-5.549 14.141,0 23.565,2.776 31.886,9.984 8.872,7.623 11.644,20.242 11.644,34.52 0,17.603 -7.35,28.972 -13.308,34.658 C 37.43,47.272 21.629,48.937 10.813,48.937 8.041,48.937 2.91,48.522 1.802,47.967 0.556,47.414 0.138,46.721 0.138,45.194 0,40.482 0,28.42 0,17.469 Z m -17.327,15.249 c 0,21.073 0,24.953 -0.28,29.39 -0.276,4.715 -1.384,6.931 -5.958,7.902 -1.112,0.279 -3.466,0.418 -5.411,0.418 -1.521,0 -2.353,0.275 -2.353,1.246 0,0.97 0.97,1.25 3.048,1.25 7.35,0 16.08,-0.418 19.965,-0.418 4.298,0 13.028,0.418 21.349,0.418 17.326,0 40.477,0 55.588,-15.805 6.933,-7.209 13.451,-18.714 13.451,-35.213 0,-17.469 -7.35,-30.778 -15.111,-38.676 -6.38,-6.519 -20.797,-16.362 -46.444,-16.362 -4.988,0 -10.675,0.419 -15.943,0.833 -5.268,0.418 -10.118,0.832 -13.584,0.832 -1.527,0 -4.574,0 -7.903,-0.138 -3.19,0 -6.794,-0.276 -9.566,-0.276 -1.802,0 -2.772,0.414 -2.772,1.384 0,0.695 0.556,1.108 2.22,1.108 2.078,0 3.742,0.28 4.988,0.556 2.772,0.556 3.466,3.605 4.022,7.626 0.694,5.821 0.694,16.771 0.694,29.528 z"
       style="fill:#37a4af;fill-opacity:1;fill-rule:nonzero;stroke:none"
       transform="matrix(1.3333333,0,0,-1.3333333,5247.6632,1091.5388)"
       clip-path="url(#clipPath116052)" />
    <path
       id="path116053"
       d="m 0,0 c 0.694,0 0.832,0.418 0.694,0.832 l -12.481,34.244 c -0.138,0.552 -0.276,1.246 -0.69,1.246 -0.418,0 -0.694,-0.694 -0.832,-1.246 L -26.065,0.971 C -26.203,0.418 -26.065,0 -25.51,0 Z m -28.281,-6.933 c -0.695,0 -0.97,-0.275 -1.25,-1.107 l -7.485,-19.823 c -1.388,-3.466 -2.078,-6.794 -2.078,-8.458 0,-2.496 1.246,-4.299 5.544,-4.299 h 2.078 c 1.664,0 2.082,-0.276 2.082,-1.108 0,-1.108 -0.832,-1.383 -2.358,-1.383 -4.436,0 -10.398,0.414 -14.696,0.414 -1.522,0 -9.149,-0.414 -16.357,-0.414 -1.802,0 -2.634,0.275 -2.634,1.383 0,0.832 0.556,1.108 1.664,1.108 1.246,0 3.186,0.142 4.298,0.28 6.376,0.832 9.01,5.545 11.783,12.477 l 34.795,87.06 c 1.665,4.018 2.497,5.544 3.884,5.544 1.246,0 2.078,-1.246 3.467,-4.436 3.323,-7.626 25.505,-64.185 34.377,-85.258 5.269,-12.477 9.291,-14.416 12.201,-15.11 2.077,-0.415 4.16,-0.557 5.824,-0.557 1.108,0 1.802,-0.138 1.802,-1.108 0,-1.108 -1.25,-1.383 -6.381,-1.383 -4.987,0 -15.11,0 -26.198,0.275 -2.496,0.139 -4.161,0.139 -4.161,1.108 0,0.832 0.557,1.108 1.94,1.25 0.97,0.277 1.945,1.522 1.25,3.187 L 4.018,-7.902 c -0.276,0.694 -0.69,0.969 -1.384,0.969 z"
       style="fill:#6398a0;fill-opacity:1;fill-rule:nonzero;stroke:none"
       transform="matrix(1.3333333,0,0,-1.3333333,5756.1716,1099.8565)"
       clip-path="url(#clipPath116054)" />
    <path
       id="path116055"
       d="m 0,0 c 0.28,-10.813 2.082,-14.417 4.854,-15.391 2.359,-0.828 4.989,-0.97 7.209,-0.97 1.526,0 2.358,-0.276 2.358,-1.108 0,-1.108 -1.25,-1.384 -3.191,-1.384 -9.009,0 -14.554,0.415 -17.188,0.415 -1.25,0 -7.765,-0.415 -14.973,-0.415 -1.801,0 -3.052,0.138 -3.052,1.384 0,0.832 0.832,1.108 2.22,1.108 1.802,0 4.298,0.142 6.239,0.694 3.604,1.108 4.16,5.131 4.297,17.193 l 1.247,82.068 c 0,2.772 0.417,4.712 1.802,4.712 1.526,0 2.772,-1.802 5.13,-4.298 1.664,-1.802 22.737,-24.398 42.974,-44.5 9.428,-9.425 28.143,-29.39 30.502,-31.606 h 0.694 l -1.389,62.245 c -0.137,8.455 -1.387,11.088 -4.712,12.477 -2.082,0.832 -5.406,0.832 -7.35,0.832 -1.664,0 -2.216,0.414 -2.216,1.246 0,1.108 1.525,1.25 3.604,1.25 7.209,0 13.865,-0.418 16.775,-0.418 1.526,0 6.79,0.418 13.584,0.418 1.803,0 3.19,-0.142 3.19,-1.25 0,-0.832 -0.832,-1.246 -2.496,-1.246 -1.387,0 -2.496,0 -4.16,-0.418 -3.88,-1.108 -4.988,-4.018 -5.13,-11.783 L 79.3,-16.219 c 0,-3.052 -0.556,-4.298 -1.802,-4.298 -1.526,0 -3.19,1.522 -4.717,3.048 -8.73,8.317 -26.474,26.48 -40.895,40.758 -15.111,14.973 -30.497,32.3 -32.993,34.934 h -0.414 z"
       style="fill:#6398a0;fill-opacity:1;fill-rule:nonzero;stroke:none"
       transform="matrix(1.3333333,0,0,-1.3333333,5836.9568,1132.2016)"
       clip-path="url(#clipPath116056)" />
    <path
       id="path116057"
       d="m 0,0 c 0,-14.692 0.138,-25.367 0.276,-28.001 0.142,-3.466 0.418,-9.015 1.526,-10.536 1.802,-2.635 7.209,-5.549 18.163,-5.549 14.14,0 23.565,2.776 31.886,9.984 8.872,7.623 11.644,20.242 11.644,34.52 0,17.603 -7.35,28.972 -13.308,34.658 C 37.43,47.272 21.629,48.937 10.813,48.937 8.04,48.937 2.91,48.522 1.802,47.967 0.557,47.414 0.138,46.721 0.138,45.194 0,40.482 0,28.42 0,17.469 Z m -17.326,15.249 c 0,21.073 0,24.953 -0.28,29.39 -0.277,4.715 -1.384,6.931 -5.958,7.902 -1.113,0.279 -3.467,0.418 -5.407,0.418 -1.526,0 -2.358,0.275 -2.358,1.246 0,0.97 0.97,1.25 3.048,1.25 7.35,0 16.081,-0.418 19.965,-0.418 4.298,0 13.028,0.418 21.349,0.418 17.326,0 40.478,0 55.592,-15.805 6.929,-7.209 13.447,-18.714 13.447,-35.213 0,-17.469 -7.35,-30.778 -15.111,-38.676 -6.38,-6.519 -20.797,-16.362 -46.444,-16.362 -4.988,0 -10.674,0.419 -15.943,0.833 -5.268,0.418 -10.118,0.832 -13.584,0.832 -1.526,0 -4.574,0 -7.903,-0.138 -3.186,0 -6.794,-0.276 -9.566,-0.276 -1.802,0 -2.772,0.414 -2.772,1.384 0,0.695 0.556,1.108 2.22,1.108 2.078,0 3.742,0.28 4.988,0.556 2.772,0.556 3.466,3.605 4.022,7.626 0.695,5.821 0.695,16.771 0.695,29.528 z"
       style="fill:#6398a0;fill-opacity:1;fill-rule:nonzero;stroke:none"
       transform="matrix(1.3333333,0,0,-1.3333333,6010.9151,1091.5388)"
       clip-path="url(#clipPath116058)" />
    <path
       id="path116059"
       d="m 0,0 c -13.585,11.925 -17.188,27.449 -17.188,40.896 0,9.428 2.91,25.79 16.218,37.986 9.981,9.152 23.151,14.696 43.806,14.696 8.597,0 13.727,-0.556 20.102,-1.388 5.269,-0.694 9.706,-1.94 13.866,-2.354 1.521,-0.142 2.078,-0.832 2.078,-1.664 0,-1.108 -0.418,-2.772 -0.694,-7.626 -0.277,-4.574 -0.138,-12.2 -0.415,-14.973 -0.141,-2.078 -0.418,-3.186 -1.664,-3.186 -1.107,0 -1.387,1.108 -1.387,3.049 -0.139,4.297 -1.941,9.148 -5.407,12.755 -4.574,4.851 -15.386,8.593 -28.143,8.593 -12.059,0 -19.961,-3.048 -26.062,-8.593 C 4.992,68.901 2.358,55.73 2.358,42.284 2.358,9.291 27.449,-7.07 46.026,-7.07 c 12.338,0 19.823,1.388 25.368,7.764 2.357,2.634 4.16,6.657 4.715,9.149 0.414,2.22 0.695,2.776 1.802,2.776 0.971,0 1.246,-0.974 1.246,-2.083 0,-1.664 -1.664,-13.722 -3.048,-18.438 -0.694,-2.354 -1.25,-3.048 -3.604,-4.018 -5.548,-2.221 -16.08,-3.19 -24.953,-3.19 C 28.558,-15.11 12.614,-10.95 0,0"
       style="fill:#6398a0;fill-opacity:1;fill-rule:nonzero;stroke:none"
       transform="matrix(1.3333333,0,0,-1.3333333,6191.3461,1139.7836)"
       clip-path="url(#clipPath116060)" />
    <path
       id="path116061"
       d="m 0,0 c 0,31.054 -17.883,50.32 -40.616,50.32 -15.943,0 -34.106,-8.872 -34.106,-43.391 0,-28.833 15.944,-51.709 42.561,-51.709 C -22.457,-44.78 0,-40.067 0,0 m -93.851,2.635 c 0,23.703 15.663,54.342 57.253,54.342 34.52,0 56.007,-20.103 56.007,-51.85 0,-31.744 -22.181,-56.839 -57.39,-56.839 -39.789,0 -55.87,29.808 -55.87,54.347"
       style="fill:#6398a0;fill-opacity:1;fill-rule:nonzero;stroke:none"
       transform="matrix(1.3333333,0,0,-1.3333333,6427.5869,1090.9815)"
       clip-path="url(#clipPath116062)" />
    <path
       id="path116063"
       d="m 0,0 c 0.418,2.358 1.25,3.604 2.358,3.604 1.109,0 1.941,-0.694 3.743,-4.297 L 43.948,-78.881 81.654,0.276 c 1.112,2.22 1.802,3.328 3.052,3.328 1.246,0 2.078,-1.383 2.496,-4.297 l 12.615,-85.672 c 1.245,-8.735 2.634,-12.757 6.794,-14.003 4.019,-1.246 6.79,-1.389 8.593,-1.389 1.25,0 2.22,-0.138 2.22,-0.97 0,-1.107 -1.664,-1.521 -3.605,-1.521 -3.466,0 -22.598,0.414 -28.142,0.827 -3.191,0.28 -4.023,0.694 -4.023,1.526 0,0.695 0.556,1.109 1.527,1.527 0.832,0.275 1.25,2.078 0.693,5.962 l -8.317,60.995 H 75.002 L 44.78,-96.351 c -3.19,-6.513 -3.884,-7.759 -5.13,-7.759 -1.246,0 -2.634,2.772 -4.85,6.927 -3.328,6.381 -14.279,27.592 -15.943,31.472 -1.25,2.91 -9.566,20.379 -14.42,30.777 H 3.885 l -7.208,-55.178 c -0.281,-2.492 -0.419,-4.294 -0.419,-6.514 0,-2.635 1.803,-3.88 4.16,-4.437 2.497,-0.551 4.436,-0.694 5.82,-0.694 1.113,0 2.083,-0.275 2.083,-0.97 0,-1.246 -1.251,-1.521 -3.329,-1.521 -5.824,0 -12.062,0.414 -14.554,0.414 -2.634,0 -9.291,-0.414 -13.727,-0.414 -1.384,0 -2.496,0.275 -2.496,1.521 0,0.695 0.832,0.97 2.221,0.97 1.107,0 2.078,0 4.16,0.419 3.88,0.832 4.988,6.238 5.681,10.95 z"
       style="fill:#6398a0;fill-opacity:1;fill-rule:nonzero;stroke:none"
       transform="matrix(1.3333333,0,0,-1.3333333,6486.0167,1018.3408)"
       clip-path="url(#clipPath116064)" />
    <path
       id="path116065"
       d="M 0,0 C 0.418,2.358 1.25,3.604 2.357,3.604 3.466,3.604 4.298,2.91 6.1,-0.693 L 43.947,-78.881 81.653,0.276 c 1.113,2.22 1.802,3.328 3.052,3.328 1.246,0 2.078,-1.383 2.497,-4.297 l 12.614,-85.672 c 1.247,-8.735 2.634,-12.757 6.794,-14.003 4.019,-1.246 6.79,-1.389 8.593,-1.389 1.25,0 2.22,-0.138 2.22,-0.97 0,-1.107 -1.664,-1.521 -3.604,-1.521 -3.466,0 -22.599,0.414 -28.143,0.827 -3.191,0.28 -4.023,0.694 -4.023,1.526 0,0.695 0.556,1.109 1.527,1.527 0.832,0.275 1.25,2.078 0.693,5.962 l -8.315,60.995 h -0.557 l -30.222,-62.94 c -3.189,-6.513 -3.883,-7.759 -5.13,-7.759 -1.246,0 -2.633,2.772 -4.85,6.927 -3.328,6.381 -14.278,27.592 -15.943,31.472 -1.25,2.91 -9.566,20.379 -14.42,30.777 H 3.884 l -7.208,-55.178 c -0.28,-2.492 -0.418,-4.294 -0.418,-6.514 0,-2.635 1.802,-3.88 4.16,-4.437 2.496,-0.551 4.436,-0.694 5.82,-0.694 1.112,0 2.082,-0.275 2.082,-0.97 0,-1.246 -1.25,-1.521 -3.328,-1.521 -5.824,0 -12.062,0.414 -14.555,0.414 -2.634,0 -9.291,-0.414 -13.726,-0.414 -1.385,0 -2.496,0.275 -2.496,1.521 0,0.695 0.832,0.97 2.22,0.97 1.108,0 2.078,0 4.16,0.419 3.88,0.832 4.988,6.238 5.682,10.95 z"
       style="fill:#6398a0;fill-opacity:1;fill-rule:nonzero;stroke:none"
       transform="matrix(1.3333333,0,0,-1.3333333,6664.9709,1018.3408)"
       clip-path="url(#clipPath116066)" />
    <path
       id="path116067"
       d="m 0,0 c 0,21.073 0,24.953 -0.276,29.39 -0.281,4.715 -1.388,6.931 -5.962,7.902 -1.109,0.279 -3.466,0.418 -5.407,0.418 -1.526,0 -2.358,0.275 -2.358,1.246 0,0.97 0.97,1.25 3.053,1.25 7.346,0 16.08,-0.418 20.236,-0.418 3.328,0 12.063,0.418 17.055,0.418 2.078,0 3.049,-0.28 3.049,-1.25 0,-0.971 -0.832,-1.246 -2.217,-1.246 -1.526,0 -2.358,-0.139 -4.022,-0.418 -3.742,-0.69 -4.85,-3.049 -5.13,-7.902 C 17.745,24.953 17.745,21.073 17.745,0 v -19.409 c 0,-20.099 4.018,-28.558 10.813,-34.102 6.238,-5.13 12.614,-5.681 17.33,-5.681 6.1,0 13.585,1.939 19.129,7.484 7.627,7.626 8.041,20.103 8.041,34.381 V 0 c 0,21.073 0,24.953 -0.277,29.39 -0.276,4.715 -1.387,6.931 -5.962,7.902 -1.108,0.279 -3.466,0.418 -4.988,0.418 -1.526,0 -2.358,0.275 -2.358,1.246 0,0.97 0.969,1.25 2.91,1.25 7.07,0 15.805,-0.418 15.942,-0.418 1.664,0 10.399,0.418 15.805,0.418 1.94,0 2.91,-0.28 2.91,-1.25 0,-0.971 -0.832,-1.246 -2.496,-1.246 -1.522,0 -2.354,-0.139 -4.018,-0.418 -3.742,-0.69 -4.854,-3.049 -5.13,-7.902 C 85.12,24.953 85.12,21.073 85.12,0 v -14.831 c 0,-15.391 -1.526,-31.747 -13.171,-41.728 -9.843,-8.458 -19.823,-9.984 -28.833,-9.984 -7.35,0 -20.659,0.418 -30.777,9.566 C 5.269,-50.601 0,-40.34 0,-20.237 Z"
       style="fill:#6398a0;fill-opacity:1;fill-rule:nonzero;stroke:none"
       transform="matrix(1.3333333,0,0,-1.3333333,6826.7365,1071.2068)"
       clip-path="url(#clipPath116068)" />
    <path
       id="path116069"
       d="m 0,0 c 0.28,-10.813 2.082,-14.417 4.854,-15.391 2.354,-0.828 4.989,-0.97 7.209,-0.97 1.526,0 2.358,-0.276 2.358,-1.108 0,-1.108 -1.25,-1.384 -3.191,-1.384 -9.01,0 -14.554,0.415 -17.188,0.415 -1.25,0 -7.765,-0.415 -14.973,-0.415 -1.802,0 -3.052,0.138 -3.052,1.384 0,0.832 0.832,1.108 2.22,1.108 1.802,0 4.298,0.142 6.239,0.694 3.603,1.108 4.16,5.131 4.297,17.193 l 1.247,82.068 c 0,2.772 0.417,4.712 1.801,4.712 1.527,0 2.773,-1.802 5.131,-4.298 1.664,-1.802 22.737,-24.398 42.974,-44.5 9.428,-9.425 28.143,-29.39 30.502,-31.606 h 0.693 l -1.388,62.245 c -0.137,8.455 -1.388,11.088 -4.712,12.477 -2.083,0.832 -5.406,0.832 -7.35,0.832 -1.66,0 -2.217,0.414 -2.217,1.246 0,1.108 1.526,1.25 3.605,1.25 7.208,0 13.865,-0.418 16.775,-0.418 1.525,0 6.794,0.418 13.584,0.418 1.802,0 3.19,-0.142 3.19,-1.25 0,-0.832 -0.832,-1.246 -2.496,-1.246 -1.388,0 -2.496,0 -4.16,-0.418 C 82.072,81.93 80.964,79.02 80.821,71.255 L 79.3,-16.219 c 0,-3.052 -0.557,-4.298 -1.802,-4.298 -1.526,0 -3.19,1.522 -4.717,3.048 -8.73,8.317 -26.474,26.48 -40.895,40.758 -15.112,14.973 -30.498,32.3 -32.994,34.934 h -0.414 z"
       style="fill:#6398a0;fill-opacity:1;fill-rule:nonzero;stroke:none"
       transform="matrix(1.3333333,0,0,-1.3333333,6988.6753,1132.2016)"
       clip-path="url(#clipPath116070)" />
    <path
       id="path116071"
       d="m 0,0 c 0,21.073 0,24.953 -0.279,29.39 -0.277,4.715 -1.665,7.07 -4.713,7.763 -1.526,0.418 -3.328,0.557 -4.992,0.557 -1.384,0 -2.216,0.275 -2.216,1.384 0,0.832 1.108,1.112 3.328,1.112 5.268,0 13.998,-0.418 18.02,-0.418 3.467,0 11.645,0.418 16.914,0.418 1.801,0 2.91,-0.28 2.91,-1.112 0,-1.109 -0.832,-1.384 -2.216,-1.384 -1.389,0 -2.496,-0.139 -4.16,-0.418 C 18.854,36.602 17.745,34.243 17.465,29.39 17.189,24.953 17.189,21.073 17.189,0 v -24.397 c 0,-13.447 0,-24.402 0.556,-30.36 0.414,-3.746 1.384,-6.238 5.544,-6.794 1.94,-0.276 4.992,-0.556 7.07,-0.556 1.527,0 2.217,-0.414 2.217,-1.108 0,-0.97 -1.108,-1.384 -2.635,-1.384 -9.148,0 -17.882,0.414 -21.625,0.414 -3.19,0 -11.92,-0.414 -17.468,-0.414 -1.802,0 -2.772,0.414 -2.772,1.384 0,0.694 0.556,1.108 2.22,1.108 2.078,0 3.742,0.28 4.988,0.556 2.772,0.556 3.604,2.91 4.023,6.933 C 0,-48.799 0,-37.844 0,-24.397 Z"
       style="fill:#6398a0;fill-opacity:1;fill-rule:nonzero;stroke:none"
       transform="matrix(1.3333333,0,0,-1.3333333,7139.5308,1071.2068)"
       clip-path="url(#clipPath116072)" />
    <path
       id="path116073"
       d="m 0,0 c 0,21.073 0,24.953 -0.28,29.39 -0.276,4.715 -1.664,7.07 -4.712,7.763 -1.526,0.418 -3.328,0.557 -4.992,0.557 -1.385,0 -2.217,0.275 -2.217,1.384 0,0.832 1.109,1.112 3.329,1.112 5.268,0 13.998,-0.418 18.02,-0.418 3.467,0 11.645,0.418 16.913,0.418 1.802,0 2.91,-0.28 2.91,-1.112 0,-1.109 -0.832,-1.384 -2.216,-1.384 -1.388,0 -2.496,-0.139 -4.16,-0.418 -3.742,-0.69 -4.85,-3.049 -5.13,-7.902 C 17.189,24.953 17.189,21.073 17.189,0 v -24.397 c 0,-13.447 0,-24.402 0.556,-30.36 0.414,-3.746 1.384,-6.238 5.544,-6.794 1.94,-0.276 4.992,-0.556 7.07,-0.556 1.527,0 2.217,-0.414 2.217,-1.108 0,-0.97 -1.109,-1.384 -2.635,-1.384 -9.148,0 -17.882,0.414 -21.625,0.414 -3.19,0 -11.92,-0.414 -17.468,-0.414 -1.803,0 -2.772,0.414 -2.772,1.384 0,0.694 0.555,1.108 2.219,1.108 2.079,0 3.743,0.28 4.989,0.556 2.772,0.556 3.604,2.91 4.022,6.933 C 0,-48.799 0,-37.844 0,-24.397 Z"
       style="fill:#37a4af;fill-opacity:1;fill-rule:nonzero;stroke:none"
       transform="matrix(1.3333333,0,0,-1.3333333,4263.7315,1071.2068)"
       clip-path="url(#clipPath116074)" />
    <path
       id="path116075"
       d="m 0,0 -20.655,-0.556 c -8.04,-0.276 -11.368,-0.97 -13.447,-4.018 -1.388,-2.082 -2.078,-3.742 -2.358,-4.855 -0.275,-1.107 -0.689,-1.664 -1.521,-1.664 -0.975,0 -1.25,0.695 -1.25,2.221 0,2.216 2.633,14.834 2.909,15.942 0.419,1.802 0.832,2.634 1.664,2.634 1.112,0 2.497,-1.388 5.963,-1.664 4.022,-0.418 9.29,-0.693 13.864,-0.693 h 54.898 c 4.437,0 7.485,0.418 9.563,0.693 2.082,0.414 3.19,0.694 3.747,0.694 0.97,0 1.107,-0.832 1.107,-2.914 0,-2.91 -0.418,-12.476 -0.418,-16.081 -0.137,-1.384 -0.414,-2.216 -1.246,-2.216 -1.108,0 -1.387,0.695 -1.526,2.773 l -0.138,1.525 C 50.88,-4.574 47.139,-0.694 34.8,-0.418 L 17.331,0 v -56.839 c 0,-12.757 0,-23.707 0.693,-29.669 0.414,-3.88 1.247,-6.929 5.407,-7.484 1.94,-0.277 4.988,-0.557 7.07,-0.557 1.522,0 2.217,-0.413 2.217,-1.107 0,-0.97 -1.109,-1.384 -2.635,-1.384 -9.148,0 -17.883,0.414 -21.763,0.414 -3.19,0 -11.924,-0.414 -17.468,-0.414 -1.802,0 -2.773,0.414 -2.773,1.384 0,0.694 0.557,1.107 2.216,1.107 2.083,0 3.747,0.28 4.993,0.557 2.772,0.555 3.604,3.604 4.022,7.626 C 0,-80.546 0,-69.596 0,-56.839 Z"
       style="fill:#6398a0;fill-opacity:1;fill-rule:nonzero;stroke:none"
       transform="matrix(1.3333333,0,0,-1.3333333,7233.8081,1027.9516)"
       clip-path="url(#clipPath116076)" />
    <path
       id="path116077"
       d="m 0,0 c 0,7.484 -1.384,10.536 -3.187,14.555 -0.973,2.219 -19.546,32.717 -24.4,39.925 -3.467,5.13 -6.933,8.597 -9.566,10.123 -1.803,0.97 -4.157,1.802 -5.821,1.802 -1.112,0 -2.082,0.276 -2.082,1.246 0,0.832 0.97,1.25 2.634,1.25 2.496,0 12.895,-0.418 17.469,-0.418 2.91,0 8.597,0.418 14.835,0.418 1.384,0 2.078,-0.418 2.078,-1.25 0,-0.832 -0.971,-0.97 -3.049,-1.522 -1.25,-0.28 -1.943,-1.388 -1.943,-2.496 0,-1.112 0.693,-2.773 1.664,-4.716 C -9.429,54.761 9.98,21.349 12.2,17.469 c 1.385,3.324 18.854,33.825 20.793,38.124 1.389,3.048 1.941,5.406 1.941,7.208 0,1.384 -0.552,2.91 -2.911,3.466 -1.246,0.276 -2.496,0.552 -2.496,1.384 0,0.97 0.695,1.25 2.359,1.25 4.574,0 9.01,-0.418 13.032,-0.418 3.048,0 12.201,0.418 14.831,0.418 1.525,0 2.496,-0.28 2.496,-1.112 0,-0.97 -1.108,-1.384 -2.635,-1.384 -1.383,0 -4.017,-0.556 -6.099,-1.664 -2.91,-1.388 -4.437,-3.049 -7.485,-6.795 C 41.452,52.402 22.043,19.823 19.547,13.864 17.469,8.872 17.469,4.574 17.469,0 v -11.368 c 0,-2.217 0,-8.041 0.414,-13.861 0.28,-4.022 1.526,-7.071 5.686,-7.626 1.94,-0.277 4.989,-0.557 6.933,-0.557 1.521,0 2.216,-0.413 2.216,-1.108 0,-0.969 -1.109,-1.383 -2.91,-1.383 -8.735,0 -17.469,0.414 -21.211,0.414 -3.467,0 -12.201,-0.414 -17.331,-0.414 -1.941,0 -3.048,0.275 -3.048,1.383 0,0.695 0.693,1.108 2.216,1.108 1.944,0 3.604,0.28 4.854,0.557 2.772,0.555 4.018,3.604 4.298,7.626 C 0,-19.409 0,-13.585 0,-11.368 Z"
       style="fill:#6398a0;fill-opacity:1;fill-rule:nonzero;stroke:none"
       transform="matrix(1.3333333,0,0,-1.3333333,7348.2379,1109.4672)"
       clip-path="url(#clipPath116078)" />
    <path
       id="path116079"
       d="M 0,0 C 38.552,11.295 82.199,-3.202 106.148,-45.201 64.181,-62.576 23.776,-45.602 0,0"
       style="fill:#5b7f16;fill-opacity:1;fill-rule:nonzero;stroke:none"
       transform="matrix(1.3333333,0,0,-1.3333333,4907.4815,716.87467)"
       clip-path="url(#clipPath116080)" />
    <path
       id="path116081"
       d="m 0,0 c -8.991,4.195 -17.88,8.324 -26.753,12.489 -11.67,5.478 -16.771,14.777 -15.755,27.495 0.386,4.822 1.128,9.614 1.585,14.431 0.548,5.774 0.965,11.562 1.466,17.673 1.132,-0.33 2.261,-0.508 3.255,-0.973 4.684,-2.19 9.344,-4.433 13.99,-6.704 C -8.699,57.805 -0.455,47.19 0.543,32.067 1.223,21.781 0.568,11.406 0.475,1.071 0.471,0.649 0.108,0.23 0,0"
       style="fill:#5b7f16;fill-opacity:1;fill-rule:nonzero;stroke:none"
       transform="matrix(1.3333333,0,0,-1.3333333,5065.6755,388.2692)"
       clip-path="url(#clipPath116082)" />
    <path
       id="path116083"
       d="m 0,0 -1.479,-47.306 c -0.591,-0.223 -1.182,-0.447 -1.773,-0.67 -1.429,1.346 -3.256,2.455 -4.222,4.077 -5.521,9.279 -11.234,18.479 -16.115,28.095 -4.902,9.66 -3.736,19.812 0.051,29.623 1.628,4.219 3.792,8.261 6.012,12.216 6.022,10.736 12.52,21.258 12.807,34.419 31.582,-20.265 35.893,-98.607 10.143,-120.313 0.623,10.479 1.377,20.471 1.769,30.478 0.402,10.228 -0.684,20.233 -5.725,29.375 z"
       style="fill:#5b7f16;fill-opacity:1;fill-rule:nonzero;stroke:none"
       transform="matrix(1.3333333,0,0,-1.3333333,5912.2719,295.488)"
       clip-path="url(#clipPath116084)" />
    <path
       id="path116085"
       d="m 0,0 c -14.509,-30.145 -86.562,-43.657 -110.637,-21.586 10.204,0.483 19.824,0.561 29.359,1.497 9.465,0.93 18.654,3.303 26.77,9.03 -15.243,0.696 -30.323,-3.173 -45.521,-2.345 -0.207,0.506 -0.415,1.011 -0.623,1.516 2.518,2.512 4.831,5.285 7.602,7.478 5.074,4.012 10.414,7.687 15.654,11.489 10.621,7.704 22.2,9.172 34.583,5.254 1.93,-0.61 3.855,-1.258 5.728,-2.02 C -25.179,5.464 -13.687,-0.765 0,0"
       style="fill:#5b7f16;fill-opacity:1;fill-rule:nonzero;stroke:none"
       transform="matrix(1.3333333,0,0,-1.3333333,5966.1417,562.4228)"
       clip-path="url(#clipPath116086)" />
    <path
       id="path116087"
       d="M 0,0 C 4.854,39.393 41.823,70.736 82.255,70.953 66.566,60.553 49.488,53.251 41.45,35.299 53.372,43.421 65.294,51.543 77.217,59.666 77.658,59.33 78.098,58.994 78.538,58.658 78.423,57.049 78.725,55.262 78.125,53.859 74.708,45.861 71.501,37.729 67.422,30.07 60.882,17.787 50.413,10.813 36.438,9.361 31.626,8.861 26.818,8.327 22.009,7.806 14.46,6.988 7.087,5.602 0,0"
       style="fill:#5b7f16;fill-opacity:1;fill-rule:nonzero;stroke:none"
       transform="matrix(1.3333333,0,0,-1.3333333,4938.9085,898.91773)"
       clip-path="url(#clipPath116088)" />
    <path
       id="path116089"
       d="m 0,0 c 13.152,1.747 26.405,-7.572 29.88,-20.633 -4.686,4.199 -8.486,9.109 -14.97,10.197 3.631,-3.172 7.262,-6.345 10.894,-9.518 -0.072,-0.171 -0.143,-0.341 -0.215,-0.512 -0.53,-0.098 -1.083,-0.346 -1.587,-0.27 -2.875,0.431 -5.775,0.784 -8.597,1.459 -4.524,1.081 -7.661,3.88 -9.308,8.278 C 5.53,-9.484 4.952,-7.974 4.379,-6.462 3.479,-4.089 2.409,-1.821 0,0"
       style="fill:#5b7f16;fill-opacity:1;fill-rule:nonzero;stroke:none"
       transform="matrix(1.3333333,0,0,-1.3333333,4540.2556,460.46973)"
       clip-path="url(#clipPath116090)" />
    <path
       id="path116091"
       d="M 0,0 C 1.881,12.388 7.78,23.555 11.793,36.397 4.354,30.835 0.6,24.022 -1.941,16.545 -4.39,9.34 -6.327,1.961 -8.536,-5.503 -21.881,18.381 0.802,67.18 30.235,77.488 28.014,67.113 29.886,57.138 31.732,47.181 34.47,32.412 29.95,20.439 17.99,11.399 12.416,7.186 6.608,3.278 0.906,-0.768 0.604,-0.512 0.302,-0.256 0,0"
       style="fill:#5b7f16;fill-opacity:1;fill-rule:nonzero;stroke:none"
       transform="matrix(1.3333333,0,0,-1.3333333,5102.9951,312.88507)"
       clip-path="url(#clipPath116092)" />
    <path
       id="path116093"
       d="m 0,0 c 3.376,14.318 7.261,27.829 20.801,35.909 4.583,2.736 9.565,3.765 14.833,4.018 7.807,0.374 15.605,0.947 23.588,1.447 1.254,-2.903 -0.076,-5.253 -1.08,-7.682 C 55.853,28.16 53.251,22.721 51.462,17.028 48.228,6.736 41.445,0.759 30.837,0.127 20.897,-0.465 10.892,0 0,0"
       style="fill:#5b7f16;fill-opacity:1;fill-rule:nonzero;stroke:none"
       transform="matrix(1.3333333,0,0,-1.3333333,5131.3871,365.1924)"
       clip-path="url(#clipPath116094)" />
    <path
       id="path116095"
       d="m 0,0 c 8.496,-7.7 19.969,-11.145 27.735,-20.056 -10.528,-0.395 -20.921,-2.747 -31.19,0.665 -7.766,2.581 -12.585,8.524 -16.948,14.986 -5.106,7.561 -10.26,15.091 -15.322,22.53 C -12.479,28.427 33.231,6.254 37.204,-18.866 25.823,-9.591 14.854,-0.857 0,0"
       style="fill:#5b7f16;fill-opacity:1;fill-rule:nonzero;stroke:none"
       transform="matrix(1.3333333,0,0,-1.3333333,4995.5499,423.74187)"
       clip-path="url(#clipPath116096)" />
    <path
       id="path116097"
       d="m 0,0 c 12.931,-7.627 25.485,-14.268 37.22,-22.131 17.535,-11.75 22.789,-28.557 16.917,-48.831 -3.094,-10.68 -5.562,-21.54 -8.497,-33.041 -8.767,3.311 -17.679,8.899 -26.211,15.166 C 1.144,-75.408 -7.621,-57.726 -4.573,-34.802 -3.07,-23.502 -1.602,-12.198 0,0"
       style="fill:#5b7f16;fill-opacity:1;fill-rule:nonzero;stroke:none"
       transform="matrix(1.3333333,0,0,-1.3333333,5480.1176,154.14947)"
       clip-path="url(#clipPath116098)" />
    <path
       id="path116099"
       d="m 0,0 c -8.166,-5.338 -15.995,-10.534 -23.912,-15.595 -3.513,-2.246 -7.049,-4.556 -10.838,-6.247 -9.643,-4.304 -19.221,-4.517 -28.249,1.761 -4.871,3.388 -9.67,6.888 -14.403,10.465 -6.302,4.762 -12.508,9.647 -18.758,14.484 0.017,0.426 -0.136,1.062 0.083,1.239 11.193,9.118 23.16,16.873 37.648,19.506 10.56,1.919 20.741,0.218 29.773,-5.688 C -18.928,13.563 -9.546,6.67 0,0"
       style="fill:#5b7f16;fill-opacity:1;fill-rule:nonzero;stroke:none"
       transform="matrix(1.3333333,0,0,-1.3333333,6107.4685,760.56747)"
       clip-path="url(#clipPath116100)" />
    <path
       id="path116101"
       d="m 0,0 c -10.181,-6.654 -19.942,-13.133 -29.812,-19.442 -4.379,-2.799 -8.788,-5.68 -13.511,-7.788 -12.022,-5.368 -23.964,-5.633 -35.219,2.195 -6.073,4.223 -12.055,8.587 -17.957,13.047 -7.855,5.936 -15.593,12.028 -23.385,18.057 0.022,0.532 -0.17,1.324 0.104,1.546 13.954,11.365 28.873,21.035 46.936,24.318 13.165,2.392 25.858,0.271 37.117,-7.093 C -23.599,16.908 -11.901,8.315 0,0"
       style="fill:#5b7f16;fill-opacity:1;fill-rule:nonzero;stroke:none"
       transform="matrix(1.3333333,0,0,-1.3333333,6179.3669,653.10253)"
       clip-path="url(#clipPath116102)" />
    <path
       id="path116103"
       d="m 0,0 c 5.88,-11.433 11.937,-21.98 16.842,-33.039 7.33,-16.524 3.454,-31.098 -10.065,-43.098 -7.121,-6.32 -13.872,-13.058 -21.254,-20.047 -4.836,6.406 -8.737,14.526 -12.052,22.964 -7.106,18.083 -5.372,34.895 7.312,50.105 C -12.965,-15.618 -6.734,-8.103 0,0"
       style="fill:#5b7f16;fill-opacity:1;fill-rule:nonzero;stroke:none"
       transform="matrix(1.3333333,0,0,-1.3333333,5945.1313,623.75227)"
       clip-path="url(#clipPath116104)" />
    <path
       id="path116105"
       d="m 0,0 c 24.379,-23.41 14.691,-96.839 -14.071,-113.012 2.745,9.949 5.696,19.208 7.796,28.658 2.084,9.38 2.696,18.949 -0.25,28.542 -5.463,-14.416 -6.491,-30.111 -12.066,-44.443 -0.551,-0.04 -1.101,-0.081 -1.652,-0.121 -1.619,3.208 -3.555,6.3 -4.787,9.65 -2.257,6.134 -4.107,12.417 -6.109,18.643 -4.056,12.621 -1.824,24.199 5.833,34.857 1.193,1.661 2.419,3.305 3.741,4.864 C -13.165,-22.456 -3.571,-13.38 0,0"
       style="fill:#5b7f16;fill-opacity:1;fill-rule:nonzero;stroke:none"
       transform="matrix(1.3333333,0,0,-1.3333333,6018.5167,310.11813)"
       clip-path="url(#clipPath116106)" />
    <path
       id="path116107"
       d="m 0,0 c -9.172,-5.996 -17.968,-11.833 -26.86,-17.518 -3.946,-2.522 -7.918,-5.117 -12.174,-7.017 -10.831,-4.835 -21.591,-5.074 -31.733,1.978 -5.471,3.806 -10.861,7.738 -16.178,11.756 -7.078,5.348 -14.05,10.837 -21.071,16.27 0.02,0.478 -0.152,1.192 0.094,1.392 12.572,10.241 26.015,18.953 42.29,21.91 11.861,2.156 23.298,0.245 33.443,-6.39 C -21.262,15.234 -10.723,7.492 0,0"
       style="fill:#5b7f16;fill-opacity:1;fill-rule:nonzero;stroke:none"
       transform="matrix(1.3333333,0,0,-1.3333333,6108.492,521.5192)"
       clip-path="url(#clipPath116108)" />
    <path
       id="path116109"
       d="m 0,0 c 6.187,-12.028 12.559,-23.125 17.72,-34.759 7.711,-17.385 3.634,-32.718 -10.59,-45.343 -7.492,-6.65 -14.595,-13.738 -22.361,-21.09 -5.088,6.738 -9.192,15.281 -12.68,24.159 -7.476,19.024 -5.652,36.713 7.693,52.715 C -13.64,-16.432 -7.086,-8.524 0,0"
       style="fill:#5b7f16;fill-opacity:1;fill-rule:nonzero;stroke:none"
       transform="matrix(1.3333333,0,0,-1.3333333,5867.6352,367.07253)"
       clip-path="url(#clipPath116110)" />
    <path
       id="path116111"
       d="m 0,0 c -9.808,2.558 -18.463,4.806 -26.592,8.728 -6.863,3.309 -12.207,8.303 -14.853,15.536 -1.516,4.143 -2.359,8.566 -3.172,12.926 -1.69,9.065 -2.16,18.449 -7.93,26.505 C -24.44,64.271 8.081,38.354 11.184,-2.706 1.549,10.855 -5.666,25.057 -21.134,31.366 -15.327,20.633 -4.779,13.021 0,0"
       style="fill:#87b046;fill-opacity:1;fill-rule:nonzero;stroke:none"
       transform="matrix(1.3333333,0,0,-1.3333333,5083.2764,746.46587)"
       clip-path="url(#clipPath116112)" />
    <path
       id="path116113"
       d="m 0,0 c 11.275,-19.153 3.768,-37.831 -18.211,-49.311 -1.779,6.057 -3.731,12.07 -5.286,18.184 -2.179,8.574 0.268,14.977 7.503,20.123 2.718,1.934 5.719,3.466 8.475,5.351 C -4.937,-3.888 -2.508,-1.899 0,0"
       style="fill:#5b7f16;fill-opacity:1;fill-rule:nonzero;stroke:none"
       transform="matrix(1.3333333,0,0,-1.3333333,5140.486,383.83307)"
       clip-path="url(#clipPath116114)" />
    <path
       id="path116115"
       d="m 0,0 c 4.277,-6.139 7.689,-10.991 11.055,-15.875 8.085,-11.734 7.334,-21.202 -2.283,-31.824 -3.86,-4.264 -7.439,-8.782 -11.174,-13.218 -10.971,6.733 -17.01,24.537 -11.394,37.037 C -10.133,-15.725 -4.863,-8.29 0,0"
       style="fill:#5b7f16;fill-opacity:1;fill-rule:nonzero;stroke:none"
       transform="matrix(1.3333333,0,0,-1.3333333,5084.2457,785.74587)"
       clip-path="url(#clipPath116116)" />
    <path
       id="path116117"
       d="m 0,0 20.35,-42.727 c -0.424,-0.468 -0.847,-0.938 -1.27,-1.407 -1.887,0.542 -4.018,0.692 -5.619,1.691 -9.158,5.718 -18.449,11.28 -27.191,17.592 -8.782,6.342 -12.394,15.9 -13.522,26.355 -0.484,4.495 -0.411,9.08 -0.25,13.611 0.437,12.302 1.394,24.629 -4.378,36.46 37.353,-3.55 77.063,-71.212 64.114,-102.3 -4.245,9.602 -8.151,18.829 -12.384,27.903 C 15.522,-13.547 9.975,-5.151 1.308,0.667 0.872,0.444 0.436,0.223 0,0"
       style="fill:#6398a0;fill-opacity:1;fill-rule:nonzero;stroke:none"
       transform="matrix(1.3333333,0,0,-1.3333333,5798.212,209.6664)"
       clip-path="url(#clipPath116118)" />
    <path
       id="path116119"
       d="m 0,0 c 44.043,-10.872 82.018,-102.743 59.42,-140.835 -3.479,13.408 -6.257,26.153 -10.152,38.548 -3.867,12.305 -9.571,23.84 -19.43,33.019 3.316,-20.424 12.645,-39.363 15.773,-59.764 -0.613,-0.417 -1.226,-0.833 -1.839,-1.25 -4.034,2.645 -8.358,4.942 -12.039,8.011 -6.735,5.619 -13.1,11.683 -19.602,17.581 -13.179,11.953 -18.348,26.912 -16.592,44.438 0.274,2.731 0.597,5.465 1.088,8.163 C -0.249,-34.938 4.821,-17.952 0,0"
       style="fill:#6398a0;fill-opacity:1;fill-rule:nonzero;stroke:none"
       transform="matrix(1.3333333,0,0,-1.3333333,5355.7113,83.444933)"
       clip-path="url(#clipPath116120)" />
    <path
       id="path116121"
       d="m 0,0 c 45.435,-11.216 84.609,-105.989 61.298,-145.285 -3.589,13.832 -6.455,26.98 -10.473,39.766 -3.989,12.693 -9.874,24.593 -20.044,34.063 3.42,-21.07 13.044,-40.607 16.271,-61.653 -0.632,-0.43 -1.264,-0.86 -1.897,-1.289 -4.161,2.728 -8.622,5.097 -12.419,8.264 -6.948,5.796 -13.514,12.052 -20.221,18.135 -13.596,12.331 -18.929,27.764 -17.117,45.844 0.283,2.816 0.616,5.637 1.123,8.421 C -0.257,-36.041 4.973,-18.52 0,0"
       style="fill:#6398a0;fill-opacity:1;fill-rule:nonzero;stroke:none"
       transform="matrix(1.3333333,0,0,-1.3333333,5238.1391,135.34347)"
       clip-path="url(#clipPath116122)" />
    <path
       id="path116123"
       d="m 0,0 c 4.2,-37.074 -55.802,-92.613 -91.637,-86.07 9.347,6.514 18.383,12.299 26.829,18.844 8.384,6.498 15.651,14.195 19.913,24.421 -14.805,-8.393 -26.745,-21.001 -41.585,-29.243 -0.497,0.355 -0.993,0.708 -1.489,1.062 0.887,3.867 1.423,7.858 2.738,11.573 2.408,6.801 5.267,13.442 7.957,20.142 5.453,13.58 15.513,21.841 29.532,25.495 2.183,0.569 4.385,1.101 6.606,1.493 C -27.016,-9.791 -12.468,-8.848 0,0"
       style="fill:#6398a0;fill-opacity:1;fill-rule:nonzero;stroke:none"
       transform="matrix(1.3333333,0,0,-1.3333333,5638.8949,341.428)"
       clip-path="url(#clipPath116124)" />
    <path
       id="path116125"
       d="m 0,0 c 27.007,-28.885 11.068,-114.062 -23.554,-131.146 3.834,11.451 7.865,22.083 10.912,32.991 3.026,10.828 4.343,21.967 1.505,33.362 -7.289,-16.499 -9.478,-34.77 -16.894,-51.163 -0.646,-0.013 -1.292,-0.025 -1.938,-0.039 -1.689,3.85 -3.757,7.585 -4.986,11.577 -2.249,7.308 -4.015,14.765 -5.962,22.165 -3.944,14.999 -0.608,28.387 9.009,40.356 1.498,1.865 3.034,3.709 4.676,5.446 C -16.794,-25.406 -5.014,-15.407 0,0"
       style="fill:#6398a0;fill-opacity:1;fill-rule:nonzero;stroke:none"
       transform="matrix(1.3333333,0,0,-1.3333333,5292.9275,366.64547)"
       clip-path="url(#clipPath116126)" />
    <path
       id="path116127"
       d="m 0,0 c 22.266,6.023 64.865,-25.064 65.828,-47.36 -5.319,5.043 -10.144,9.966 -15.356,14.462 -5.174,4.462 -10.931,8.136 -17.829,9.754 7.238,-8.168 16.673,-14.209 23.822,-22.414 -0.148,-0.334 -0.297,-0.667 -0.446,-1.001 -2.507,0.174 -5.042,0.123 -7.516,0.571 -4.527,0.818 -9.019,1.924 -13.524,2.923 -9.13,2.023 -15.625,7.334 -19.832,15.473 -0.655,1.268 -1.29,2.549 -1.841,3.857 C 9.801,-15.426 7.192,-6.712 0,0"
       style="fill:#6398a0;fill-opacity:1;fill-rule:nonzero;stroke:none"
       transform="matrix(1.3333333,0,0,-1.3333333,5385.5876,334.02827)"
       clip-path="url(#clipPath116128)" />
    <path
       id="path116129"
       d="m 0,0 c 33.428,-1.312 74.503,-62.034 63.837,-92.905 -4.504,9.169 -8.404,17.963 -13.058,26.337 -4.621,8.313 -10.455,15.798 -18.939,20.965 5.428,-14.261 14.98,-26.555 20.269,-40.828 -0.381,-0.391 -0.762,-0.783 -1.143,-1.175 -3.306,1.311 -6.771,2.329 -9.885,3.999 -5.7,3.058 -11.198,6.493 -16.77,9.788 -11.295,6.676 -17.251,16.715 -18.585,29.634 -0.208,2.013 -0.381,4.037 -0.427,6.058 C 5.009,-25.273 6.148,-12.252 0,0"
       style="fill:#6398a0;fill-opacity:1;fill-rule:nonzero;stroke:none"
       transform="matrix(1.3333333,0,0,-1.3333333,5057.0876,491.51533)"
       clip-path="url(#clipPath116130)" />
    <path
       id="path116131"
       d="m 0,0 c 1.149,-33.435 -56.387,-78.863 -87.958,-70.497 8.812,5.167 17.296,9.702 25.305,14.96 7.951,5.22 14.987,11.588 19.515,20.43 C -56.961,-41.57 -68.52,-52 -82.363,-58.324 c -0.419,0.35 -0.838,0.702 -1.257,1.053 1.064,3.394 1.824,6.924 3.261,10.153 2.63,5.909 5.652,11.644 8.527,17.444 5.828,11.756 15.401,18.433 28.188,20.714 1.993,0.356 3.998,0.677 6.01,0.871 C -24.837,-6.854 -11.767,-7.033 0,0"
       style="fill:#6398a0;fill-opacity:1;fill-rule:nonzero;stroke:none"
       transform="matrix(1.3333333,0,0,-1.3333333,5815.8929,482.98013)"
       clip-path="url(#clipPath116132)" />
    <path
       id="path116133"
       d="m 0,0 c 20.257,-26.624 -0.455,-96.946 -31.058,-108.359 4.208,9.307 8.511,17.911 12.011,26.83 3.474,8.854 5.536,18.117 4.124,27.95 -7.549,-13.262 -10.956,-28.452 -18.601,-41.613 -0.544,0.044 -1.089,0.088 -1.634,0.133 -1.092,3.385 -2.513,6.705 -3.205,10.17 -1.267,6.344 -2.116,12.771 -3.119,19.165 -2.036,12.963 1.919,23.944 11.039,33.195 1.42,1.44 2.871,2.861 4.401,4.182 C -16.311,-19.944 -5.54,-12.538 0,0"
       style="fill:#6398a0;fill-opacity:1;fill-rule:nonzero;stroke:none"
       transform="matrix(1.3333333,0,0,-1.3333333,6037.8773,114.0244)"
       clip-path="url(#clipPath116134)" />
    <path
       id="path116135"
       d="M 0,0 C -14.966,35.694 28.627,108.448 66.211,112.355 58.8,103.15 51.485,94.763 44.979,85.788 38.52,76.879 33.523,67.103 32.253,55.68 44.554,68.344 52.776,84.37 65.155,96.894 65.753,96.686 66.35,96.478 66.947,96.27 67.189,92.161 67.816,88.03 67.586,83.949 67.167,76.477 66.252,69.032 65.522,61.579 64.042,46.471 56.428,35.319 43.532,27.604 41.523,26.401 39.485,25.231 37.388,24.195 24.053,17.606 9.841,12.436 0,0"
       style="fill:#6398a0;fill-opacity:1;fill-rule:nonzero;stroke:none"
       transform="matrix(1.3333333,0,0,-1.3333333,5140.6267,917.89813)"
       clip-path="url(#clipPath116136)" />
    <path
       id="path116137"
       d="M 0,0 C 1.881,12.388 7.78,23.555 11.793,36.396 4.354,30.835 0.6,24.022 -1.941,16.545 -4.39,9.34 -6.327,1.961 -8.536,-5.503 -21.88,18.38 0.802,67.18 30.235,77.488 28.014,67.112 29.887,57.138 31.732,47.181 34.47,32.412 29.95,20.439 17.99,11.399 12.416,7.186 6.608,3.278 0.906,-0.768 0.604,-0.512 0.302,-0.256 0,0"
       style="fill:#6398a0;fill-opacity:1;fill-rule:nonzero;stroke:none"
       transform="matrix(1.3333333,0,0,-1.3333333,5162.1,539.11427)"
       clip-path="url(#clipPath116138)" />
    <path
       id="path116139"
       d="m 0,0 c -5.059,-11.061 -9.856,-21.748 -14.836,-32.352 -2.21,-4.704 -4.4,-9.493 -7.27,-13.796 -7.303,-10.955 -17.26,-17.552 -30.957,-16.938 -7.39,0.33 -14.777,0.828 -22.148,1.45 -9.811,0.828 -19.606,1.851 -29.414,2.792 -0.264,0.461 -0.849,1.029 -0.736,1.363 5.735,17.058 13.192,33.198 26.716,45.613 9.857,9.049 21.723,14.028 35.175,13.809 C -28.98,1.706 -14.503,0.682 0,0"
       style="fill:#6398a0;fill-opacity:1;fill-rule:nonzero;stroke:none"
       transform="matrix(1.3333333,0,0,-1.3333333,5749.7355,232.58427)"
       clip-path="url(#clipPath116140)" />
    <path
       id="path116141"
       d="m 0,0 c -31.594,-13.289 -96.066,25.241 -99.564,58.521 8.159,-6.554 15.594,-13.024 23.548,-18.776 7.896,-5.711 16.559,-10.126 26.675,-11.239 -11.226,10.88 -25.427,18.145 -36.529,29.096 0.183,0.529 0.367,1.057 0.551,1.586 3.637,0.218 7.295,0.779 10.91,0.58 6.616,-0.365 13.21,-1.167 19.811,-1.806 13.38,-1.296 23.264,-8.027 30.11,-19.44 1.066,-1.778 2.104,-3.581 3.024,-5.437 C -15.616,21.282 -11.022,8.702 0,0"
       style="fill:#6398a0;fill-opacity:1;fill-rule:nonzero;stroke:none"
       transform="matrix(1.3333333,0,0,-1.3333333,6001.4593,877.652)"
       clip-path="url(#clipPath116142)" />
    <path
       id="path116143"
       d="m 0,0 c -7.692,-5.027 -15.067,-9.922 -22.524,-14.688 -3.309,-2.116 -6.64,-4.292 -10.208,-5.885 -9.083,-4.055 -18.106,-4.256 -26.61,1.659 -4.589,3.19 -9.108,6.487 -13.567,9.857 -5.936,4.485 -11.781,9.087 -17.668,13.643 0.016,0.401 -0.128,1 0.078,1.168 10.543,8.587 21.814,15.892 35.462,18.373 9.947,1.808 19.537,0.205 28.044,-5.358 C -17.83,12.775 -8.992,6.283 0,0"
       style="fill:#6398a0;fill-opacity:1;fill-rule:nonzero;stroke:none"
       transform="matrix(1.3333333,0,0,-1.3333333,5796.2445,901.35387)"
       clip-path="url(#clipPath116144)" />
    <path
       id="path116145"
       d="m 0,0 c 5.538,-10.77 11.244,-20.704 15.864,-31.12 6.905,-15.565 3.254,-29.292 -9.48,-40.596 -6.708,-5.954 -13.067,-12.3 -20.021,-18.883 -4.554,6.034 -8.229,13.682 -11.352,21.63 -6.693,17.033 -5.061,32.869 6.887,47.197 C -12.212,-14.711 -6.344,-7.632 0,0"
       style="fill:#6398a0;fill-opacity:1;fill-rule:nonzero;stroke:none"
       transform="matrix(1.3333333,0,0,-1.3333333,5828.6144,755.00107)"
       clip-path="url(#clipPath116146)" />
    <path
       id="path116147"
       d="m 0,0 c -4.621,-12.736 -8.882,-25.216 -13.714,-37.47 -2.19,-5.551 -5.052,-10.969 -8.423,-15.892 -6.66,-9.726 -16.335,-14.59 -28.066,-15.11 -4.497,-0.198 -9.033,-0.004 -13.528,0.327 -10.795,0.796 -21.589,2.423 -32.024,-1.142 -0.434,0.739 -0.786,1.062 -0.73,1.282 3.3,12.967 6.884,25.871 13.667,37.527 8.438,14.501 21.75,22.281 37.662,26.068 14.544,3.462 29.403,4.281 44.273,4.897 C -0.61,0.498 -0.324,0.187 0,0"
       style="fill:#6398a0;fill-opacity:1;fill-rule:nonzero;stroke:none"
       transform="matrix(1.3333333,0,0,-1.3333333,4982.5713,527.1116)"
       clip-path="url(#clipPath116148)" />
    <path
       id="path116149"
       d="M 0,0 C -0.728,0.186 -1.394,0.147 -1.657,0.454 -9.48,9.578 -17.55,18.52 -19.928,30.96 c -1.583,8.28 0.048,15.98 3.753,23.284 3.31,6.526 7.029,12.845 10.651,19.407 0.356,-0.169 0.881,-0.256 1.148,-0.567 4.338,-5.057 8.689,-10.104 12.94,-15.234 2.337,-2.821 4.785,-5.616 6.672,-8.731 4.372,-7.216 5.111,-15.277 1.326,-22.563 C 11.763,17.317 5.573,8.801 0,0"
       style="fill:#6398a0;fill-opacity:1;fill-rule:nonzero;stroke:none"
       transform="matrix(1.3333333,0,0,-1.3333333,4981.5876,671.03493)"
       clip-path="url(#clipPath116150)" />
    <path
       id="path116151"
       d="m 0,0 c -6.293,-1.75 -12.167,-3.608 -18.149,-4.996 -9.648,-2.238 -15.598,0.31 -20.953,8.486 -3.265,4.985 -6.557,9.951 -9.836,14.925 C -31.685,28.921 -12.167,23.536 0,0"
       style="fill:#6398a0;fill-opacity:1;fill-rule:nonzero;stroke:none"
       transform="matrix(1.3333333,0,0,-1.3333333,4983.7001,509.014)"
       clip-path="url(#clipPath116152)" />
    <path
       id="path116153"
       d="m 0,0 c -8.228,3.165 -14.442,8.637 -17.625,17.092 -3.806,10.11 -3.621,20.603 -2.64,31.294 C 0.636,41.162 12.215,17.695 7.953,-1.364 5.856,3.735 4.432,8.11 2.306,12.112 0.267,15.947 -2.5,19.396 -4.946,23.014 -5.579,22.695 -6.211,22.378 -6.843,22.06 -3.937,15.079 -1.029,8.099 1.877,1.118 1.252,0.745 0.626,0.373 0,0"
       style="fill:#85b224;fill-opacity:1;fill-rule:nonzero;stroke:none"
       transform="matrix(1.3333333,0,0,-1.3333333,5784.2705,362.984)"
       clip-path="url(#clipPath116154)" />
    <path
       id="path116155"
       d="m 0,0 c 0,-18.998 -15.401,-34.398 -34.398,-34.398 -18.998,0 -34.399,15.4 -34.399,34.398 0,18.997 15.401,34.398 34.399,34.398 C -15.401,34.398 0,18.997 0,0"
       style="fill:#37a4af;fill-opacity:1;fill-rule:nonzero;stroke:none"
       transform="matrix(1.3333333,0,0,-1.3333333,5512.8904,519.6064)"
       clip-path="url(#clipPath116156)" />
    <path
       id="path116157"
       d="m 0,0 c 0,-14.916 -12.092,-27.008 -27.008,-27.008 -14.916,0 -27.008,12.092 -27.008,27.008 0,14.916 12.092,27.008 27.008,27.008 C -12.092,27.008 0,14.916 0,0"
       style="fill:#37a4af;fill-opacity:1;fill-rule:nonzero;stroke:none"
       transform="matrix(1.3333333,0,0,-1.3333333,5410.0928,706.42947)"
       clip-path="url(#clipPath116158)" />
    <path
       id="path116159"
       d="m 0,0 c 0,-14.799 -11.997,-26.796 -26.795,-26.796 -14.799,0 -26.795,11.997 -26.795,26.796 0,14.799 11.996,26.795 26.795,26.795 C -11.997,26.795 0,14.799 0,0"
       style="fill:#37a4af;fill-opacity:1;fill-rule:nonzero;stroke:none"
       transform="matrix(1.3333333,0,0,-1.3333333,5616.3924,699.35253)"
       clip-path="url(#clipPath116160)" />
    <path
       id="path116161"
       d="M 0,0 C 23.229,9.25 34.545,6.496 39.664,-11.315 27.63,1.197 14.159,1.557 0,0 m 23.14,12.482 c -35.413,-1.586 -65.168,-16.164 -89.176,-42.087 -9.13,-9.849 -12.453,-22.032 -9.13,-34.994 1.916,-7.484 -0.418,-11.914 -5.148,-17.242 -0.061,-0.06 -0.121,-0.12 -0.15,-0.18 -38.287,-30.563 -62.863,-74.268 -75.136,-100.491 -0.569,-1.226 -1.138,-2.425 -1.647,-3.562 -5.208,-11.494 -7.753,-18.828 -7.753,-18.828 0,0 -2.934,110.727 -2.694,125.336 0.12,10.267 -0.539,20.625 0.719,30.802 4.37,36.91 18.379,69.748 52.864,93.277 1.377,0.988 2.155,2.694 4.49,5.807 -21.134,-1.916 -37.508,-9.638 -52.685,-18.32 -15.266,-8.681 -28.917,-19.696 -43.226,-29.725 -45.2,40.023 -84.625,60.678 -110.907,58.103 133.808,-116.715 122.672,-267.646 117.583,-304.495 -0.719,-5.418 -1.347,-8.382 -1.347,-8.382 0,0 -0.629,2.694 -1.736,7.394 -6.855,29.157 -31.881,135.185 -34.575,142.129 -14.728,-9.518 -28.887,-12.213 -43.016,-9.219 -10.657,5.239 -36.88,31.731 -42.178,40.322 0,0.059 -0.029,0.09 -0.06,0.12 -1.017,2.425 -1.616,5.118 -1.676,7.543 -0.329,10.238 -4.55,18.11 -12.363,24.277 -19.458,15.267 -38.915,30.564 -58.493,45.651 -2.723,2.125 -6.225,7.095 -9.578,2.754 -3.743,-4.79 2.214,-7.065 5.148,-9.49 9.4,-7.753 19.099,-15.176 28.498,-22.929 2.963,-2.455 5.388,-5.569 8.083,-8.353 -0.719,-0.777 -1.437,-1.586 -2.156,-2.364 -4.041,2.874 -8.261,5.538 -12.094,8.651 -8.381,6.795 -16.553,13.86 -24.875,20.744 -1.886,1.557 -3.742,3.353 -5.957,4.162 -1.617,0.598 -3.742,-0.27 -5.628,-0.48 0.359,-1.855 0.12,-4.399 1.228,-5.447 5.627,-5.209 11.614,-10.029 17.451,-14.998 5.329,-4.49 10.747,-8.861 15.926,-13.5 2.395,-2.125 4.34,-4.76 5.478,-8.202 -17.422,8.651 -29.696,24.127 -46.04,34.304 -4.699,-4.639 -2.035,-7.303 0.958,-9.967 10.178,-9.011 20.386,-17.992 30.473,-27.061 2.426,-2.186 4.521,-4.731 6.736,-7.125 -0.569,-0.748 -1.138,-1.497 -1.737,-2.275 -2.394,1.407 -5.089,2.455 -7.124,4.251 -9.16,8.052 -18.051,16.374 -27.21,24.426 -3.233,2.874 -6.945,5.209 -10.448,7.784 -0.748,-0.509 -1.467,-1.018 -2.215,-1.527 0.898,-2.784 0.988,-6.466 2.844,-8.202 19.548,-18.38 39.334,-36.491 59.151,-54.571 6.436,-5.898 14.368,-7.155 22.511,-5.269 2.155,0.509 4.071,0.599 5.807,0.3 4.939,-4.97 9.938,-9.939 15.028,-14.788 1.765,-1.706 3.562,-3.412 5.358,-5.089 5.508,-5.089 11.135,-10.028 16.973,-14.758 30.443,-24.546 56.247,-51.906 65.916,-88.218 2.664,-9.758 4.999,-19.606 6.884,-29.485 2.545,-12.842 4.371,-25.804 4.97,-38.705 0.748,-14.519 0.957,-29.066 0.957,-43.675 0,-3.772 -0.089,-7.573 -0.089,-11.405 0,-5.688 -0.03,-11.345 -0.12,-17.033 -0.03,-2.365 -0.059,-5.179 -0.09,-8.202 -2.425,-16.464 -6.226,-32.389 -16.045,-48.943 -17.811,-29.995 -45.501,-54.512 -80.015,-62.833 49.721,-6.615 101.509,-4.31 151.44,-4.341 49.93,-0.059 101.778,-2.274 151.439,4.341 -61.097,14.758 -94.294,72.233 -98.126,130.066 -0.748,11.196 -3.143,22.301 -5.538,33.437 0.03,30.623 3.682,66.545 12.782,108.453 0.24,0.838 0.509,1.677 0.779,2.545 9.758,31.671 23.977,64.239 43.705,96.599 0.748,0.898 1.526,1.766 2.334,2.635 1.916,2.065 6.496,3.711 8.98,2.903 20.986,-7.005 38.048,0.868 54.272,13.141 15.805,11.944 28.228,26.852 37.867,43.974 3.563,6.317 6.167,13.471 7.664,20.566 3.981,18.709 -5.867,30.832 -25.115,29.963"
       style="fill:#37a4af;fill-opacity:1;fill-rule:nonzero;stroke:none"
       transform="matrix(1.3333333,0,0,-1.3333333,5750.0923,631.2276)"
       clip-path="url(#clipPath116162)" />
    <path
       id="path116163"
       d="m 0,0 c -0.719,-5.418 -1.347,-8.382 -1.347,-8.382 0,0 -0.629,2.695 -1.736,7.395 C -2.096,-0.658 -1.047,-0.329 0,0"
       style="fill:#0c6d93;fill-opacity:1;fill-rule:nonzero;stroke:none"
       transform="matrix(1.3333333,0,0,-1.3333333,5484.9509,956.7172)"
       clip-path="url(#clipPath116164)" />
    <path
       id="path116165"
       d="m 0,0 c -4.399,5.971 -5.941,11.776 -5.216,18.828 -5.204,-4.152 -10.38,-6.985 -17.754,-5.62 4.123,6.181 8.751,10.312 16.426,11.154 -6.664,3.451 -10.008,8.545 -11.392,15.144 C -12,40.035 -6.514,35.531 -2.796,26.685 -2.849,35.258 1.727,40.135 7.455,44.897 9.292,38.37 6.535,31.013 0.059,24.995 7.798,27.543 13.437,24.85 18.797,20.498 14.49,16.915 8.283,16.685 0.814,19.866 2.827,13.332 3.237,7.114 0,0"
       style="fill:#8bcff0;fill-opacity:1;fill-rule:nonzero;stroke:none"
       transform="matrix(1.3333333,0,0,-1.3333333,4689.1827,472.096)"
       clip-path="url(#clipPath116166)" />
    <path
       id="path116167"
       d="M 0,0 C -9.55,12.96 -12.898,25.565 -11.323,40.874 -22.62,31.859 -33.856,25.709 -49.865,28.672 c 8.95,13.419 18.997,22.387 35.658,24.215 -14.467,7.493 -21.726,18.551 -24.731,32.876 12.888,1.149 24.798,-8.629 32.869,-27.835 -0.115,18.613 9.818,29.199 22.253,39.54 C 20.171,83.298 14.188,67.326 0.129,54.262 16.931,59.791 29.171,53.946 40.808,44.499 31.456,36.72 17.981,36.22 1.768,43.127 6.137,28.942 7.027,15.444 0,0"
       style="fill:#8bcff0;fill-opacity:1;fill-rule:nonzero;stroke:none"
       transform="matrix(1.3333333,0,0,-1.3333333,6167.8631,437.05307)"
       clip-path="url(#clipPath116168)" />
    <path
       id="path116169"
       d="m 0,0 c -11.362,9.306 -16.774,19.042 -15.284,33.882 -8.558,-12.481 -18.898,-18.865 -33.335,-19.991 4.781,13.534 13.81,21.396 27.477,26.457 -14.034,2.895 -21.997,10.704 -27.392,21.905 10.618,2.823 20.82,-1.283 32.542,-13.124 0.694,13.121 5.801,23.575 16.58,32.712 C 4.346,68.695 1.715,57.853 -5.461,46.574 6.929,48.983 18.37,49.969 30.053,42.175 18.652,34.302 7.44,31.91 -6.772,36.017 1.609,25.088 3.084,14.114 0,0"
       style="fill:#8bcff0;fill-opacity:1;fill-rule:nonzero;stroke:none"
       transform="matrix(1.3333333,0,0,-1.3333333,5341.7315,985.2432)"
       clip-path="url(#clipPath116170)" />
    <path
       id="path116171"
       d="M 0,0 C -2.671,10.594 3.982,19.326 18.204,23.892 19.406,9.373 11.998,-0.349 0,0"
       style="fill:#8bcff0;fill-opacity:1;fill-rule:nonzero;stroke:none"
       transform="matrix(1.3333333,0,0,-1.3333333,5662.7113,442.152)"
       clip-path="url(#clipPath116172)" />
    <path
       id="path116173"
       d="M 0,0 C -10.283,12.99 -10.995,21.899 -2.895,29.642 7.478,23.333 8.682,12.933 0,0"
       style="fill:#8bcff0;fill-opacity:1;fill-rule:nonzero;stroke:none"
       transform="matrix(1.3333333,0,0,-1.3333333,5663.1919,493.92413)"
       clip-path="url(#clipPath116174)" />
    <path
       id="path116175"
       d="M 0,0 C -7.847,-13.402 -20.117,-10.764 -31.887,-11.68 -26.902,0.404 -12.71,5.64 0,0"
       style="fill:#8bcff0;fill-opacity:1;fill-rule:nonzero;stroke:none"
       transform="matrix(1.3333333,0,0,-1.3333333,5654.4327,450.3044)"
       clip-path="url(#clipPath116176)" />
    <path
       id="path116177"
       d="M 0,0 C 13.764,-2.068 22.257,-9.831 23.899,-21.08 13.196,-24.453 4.961,-17.416 0,0"
       style="fill:#8bcff0;fill-opacity:1;fill-rule:nonzero;stroke:none"
       transform="matrix(1.3333333,0,0,-1.3333333,5624.2764,412.7692)"
       clip-path="url(#clipPath116178)" />
    <path
       id="path116179"
       d="M 0,0 C 10.409,5.475 22.167,2.547 31.927,-7.949 18.175,-13.278 5.333,-10.08 0,0"
       style="fill:#8bcff0;fill-opacity:1;fill-rule:nonzero;stroke:none"
       transform="matrix(1.3333333,0,0,-1.3333333,5666.5643,449.61293)"
       clip-path="url(#clipPath116180)" />
  </g>
</svg>
